<?xml version="1.0" encoding="utf-8"?>
<!-- Generator: Adobe Illustrator 16.0.0, SVG Export Plug-In . SVG Version: 6.00 Build 0)  -->
<!DOCTYPE svg PUBLIC "-//W3C//DTD SVG 1.1//EN" "http://www.w3.org/Graphics/SVG/1.1/DTD/svg11.dtd">
<svg version="1.1" id="Layer_1" xmlns="http://www.w3.org/2000/svg" xmlns:xlink="http://www.w3.org/1999/xlink" x="0px" y="0px"
	 width="1445px" height="460px" viewBox="0 0 1445 460" enable-background="new 0 0 1445 460" xml:space="preserve">
<path fill="#1B2026" d="M400.392,58.807l-3.899,5.672h4.823v-3.942c0-1.403,0.036-2.553,0.107-3.448h-0.086
	C401.137,57.561,400.822,58.134,400.392,58.807z"/>
<path fill="#1B2026" d="M170,10h-60c-5.523,0-10,4.477-10,10v60c0,5.523,4.477,10,10,10h60c5.523,0,10-4.477,10-10V20
	C180,14.477,175.523,10,170,10z M131.499,24.295l-0.548,10.936h-1.869l-0.559-10.936H131.499z M128.813,37.449
	c0.279-0.275,0.677-0.414,1.192-0.414c0.508,0,0.898,0.144,1.171,0.43c0.272,0.287,0.408,0.684,0.408,1.192
	c0,0.509-0.138,0.912-0.414,1.208c-0.276,0.297-0.665,0.446-1.166,0.446c-0.509,0-0.904-0.144-1.187-0.43
	c-0.283-0.286-0.424-0.694-0.424-1.225C128.394,38.127,128.534,37.725,128.813,37.449z M132.1,70h-2.524V59.859
	c0-1.21,0.028-2.17,0.086-2.879c-0.165,0.172-0.367,0.362-0.607,0.569c-0.24,0.208-1.044,0.867-2.412,1.977l-1.268-1.601
	l4.619-3.631h2.105V70z"/>
<path fill="#1B2026" d="M80,10H20c-5.523,0-10,4.477-10,10v60c0,5.523,4.477,10,10,10h60c5.523,0,10-4.477,10-10V20
	C90,14.477,85.523,10,80,10z M42.6,56.669h-1.697c-0.494-0.372-1.119-0.911-1.875-1.617c-0.756-0.705-1.305-1.266-1.649-1.681
	v-0.226h2.933c0.272,0.501,0.643,1.078,1.112,1.729c0.469,0.652,0.861,1.16,1.176,1.525V56.669z M45.248,32.674
	c-0.752,0.795-1.647,1.192-2.686,1.192c-0.466,0-0.922-0.055-1.37-0.167c-0.448-0.111-0.972-0.292-1.574-0.542
	c-0.91-0.394-1.694-0.591-2.353-0.591c-0.358,0-0.757,0.107-1.198,0.322s-0.879,0.541-1.316,0.978v-2.052
	c0.709-0.773,1.604-1.16,2.686-1.16c0.473,0,0.92,0.047,1.343,0.14c0.422,0.093,0.949,0.272,1.579,0.537
	c0.938,0.394,1.726,0.591,2.363,0.591c0.372,0,0.782-0.111,1.23-0.333c0.447-0.222,0.879-0.541,1.294-0.956V32.674z"/>
<g>
	<path fill="#1B2026" d="M218.389,30.944c-0.512,0.609-0.768,1.436-0.768,2.481c0,1.669,0.655,2.503,1.966,2.503
		c1.382,0,2.138-1.049,2.267-3.147l0.129-2.567c-0.451-0.122-0.935-0.183-1.45-0.183C219.615,30.031,218.9,30.336,218.389,30.944z"
		/>
	<path fill="#1B2026" d="M260,10h-60c-5.523,0-10,4.477-10,10v60c0,5.523,4.477,10,10,10h60c5.523,0,10-4.477,10-10V20
		C270,14.477,265.523,10,260,10z M225.333,70h-10.646v-1.912l4.05-4.071c1.196-1.225,1.989-2.093,2.379-2.605
		c0.39-0.512,0.675-0.994,0.854-1.445c0.179-0.451,0.269-0.935,0.269-1.45c0-0.709-0.213-1.268-0.639-1.676
		c-0.426-0.408-1.015-0.612-1.767-0.612c-0.602,0-1.184,0.111-1.746,0.333c-0.563,0.222-1.212,0.623-1.95,1.203l-1.364-1.665
		c0.874-0.737,1.722-1.26,2.546-1.568c0.823-0.308,1.701-0.462,2.632-0.462c1.461,0,2.632,0.381,3.513,1.144
		s1.321,1.789,1.321,3.078c0,0.709-0.127,1.382-0.381,2.02c-0.254,0.638-0.645,1.294-1.171,1.971s-1.402,1.592-2.626,2.745
		l-2.729,2.643v0.107h7.455V70z M228.18,34.871c-0.322,0.849-0.775,1.509-1.359,1.982c-0.584,0.473-1.259,0.709-2.025,0.709
		c-0.566,0-1.057-0.15-1.472-0.451c-0.416-0.301-0.695-0.709-0.838-1.225h-0.129c-0.351,0.559-0.784,0.978-1.3,1.257
		s-1.096,0.419-1.74,0.419c-1.167,0-2.086-0.376-2.755-1.128c-0.67-0.752-1.004-1.769-1.004-3.051c0-1.475,0.444-2.673,1.332-3.593
		c0.888-0.92,2.08-1.38,3.577-1.38c0.544,0,1.147,0.048,1.81,0.145c0.662,0.097,1.251,0.231,1.767,0.403l-0.236,4.995v0.258
		c0,1.146,0.372,1.719,1.117,1.719c0.565,0,1.015-0.365,1.348-1.096s0.5-1.661,0.5-2.793c0-1.225-0.251-2.3-0.752-3.228
		c-0.501-0.927-1.214-1.642-2.138-2.143c-0.924-0.501-1.984-0.752-3.18-0.752c-1.525,0-2.852,0.315-3.98,0.945
		c-1.128,0.63-1.989,1.531-2.583,2.702c-0.595,1.171-0.892,2.53-0.892,4.077c0,2.077,0.555,3.674,1.665,4.791
		c1.11,1.117,2.703,1.676,4.78,1.676c1.583,0,3.233-0.322,4.952-0.967v1.762c-1.504,0.616-3.141,0.924-4.909,0.924
		c-2.65,0-4.716-0.714-6.198-2.143s-2.224-3.421-2.224-5.978c0-1.869,0.401-3.532,1.203-4.99c0.802-1.457,1.914-2.573,3.335-3.346
		c1.421-0.773,3.031-1.16,4.829-1.16c1.554,0,2.938,0.322,4.152,0.967s2.155,1.563,2.825,2.755c0.669,1.192,1.004,2.569,1.004,4.13
		C228.664,33.086,228.502,34.022,228.18,34.871z"/>
</g>
<g>
	<polygon fill="#1B2026" points="308.33,33.705 311.015,33.705 311.627,30.654 308.942,30.654 	"/>
	<path fill="#1B2026" d="M350,10h-60c-5.523,0-10,4.477-10,10v60c0,5.523,4.477,10,10,10h60c5.523,0,10-4.477,10-10V20
		C360,14.477,355.523,10,350,10z M313.604,68.985c-1.067,0.82-2.585,1.23-4.555,1.23c-1.74,0-3.208-0.283-4.404-0.849v-2.245
		c0.666,0.33,1.371,0.584,2.116,0.763c0.745,0.179,1.461,0.269,2.148,0.269c1.217,0,2.127-0.226,2.729-0.677
		s0.902-1.149,0.902-2.095c0-0.838-0.333-1.454-0.999-1.848c-0.666-0.394-1.712-0.591-3.137-0.591h-1.364v-2.052h1.386
		c2.506,0,3.76-0.866,3.76-2.6c0-0.673-0.219-1.192-0.655-1.558c-0.437-0.365-1.082-0.548-1.934-0.548
		c-0.595,0-1.167,0.084-1.719,0.252c-0.552,0.168-1.203,0.496-1.955,0.983l-1.235-1.762c1.439-1.06,3.111-1.59,5.017-1.59
		c1.583,0,2.818,0.34,3.706,1.021c0.888,0.681,1.332,1.619,1.332,2.814c0,0.996-0.29,1.825-0.87,2.487
		c-0.58,0.663-1.396,1.108-2.449,1.337v0.086c1.26,0.158,2.206,0.55,2.836,1.176c0.63,0.627,0.945,1.459,0.945,2.498
		C315.205,67,314.671,68.165,313.604,68.985z M316.58,30.654h-3.062l-0.591,3.051h2.9v1.805h-3.255L311.713,40h-1.912l0.859-4.49
		h-2.664L307.137,40h-1.869l0.816-4.49h-2.686v-1.805h3.04l0.612-3.051h-2.836V28.85h3.147l0.859-4.533h1.934l-0.859,4.533h2.707
		l0.859-4.533h1.869l-0.859,4.533h2.707V30.654z"/>
</g>
<g>
	<path fill="#1B2026" d="M402.605,35.295c0-0.415-0.145-0.757-0.435-1.026s-0.775-0.528-1.456-0.779v3.427
		C401.975,36.724,402.605,36.183,402.605,35.295z"/>
	<path fill="#1B2026" d="M399.286,27.174c-0.573,0.086-1.01,0.262-1.311,0.526c-0.301,0.265-0.451,0.595-0.451,0.988
		c0,0.408,0.127,0.749,0.381,1.021c0.254,0.272,0.714,0.541,1.38,0.806V27.174z"/>
	<path fill="#1B2026" d="M440,10h-60c-5.523,0-10,4.477-10,10v60c0,5.523,4.477,10,10,10h60c5.523,0,10-4.477,10-10V20
		C450,14.477,445.523,10,440,10z M394.914,35.929c0.616,0.301,1.335,0.553,2.159,0.757c0.823,0.204,1.561,0.31,2.213,0.317v-4.018
		l-0.902-0.333c-1.175-0.451-2.032-0.99-2.573-1.617C395.27,30.409,395,29.634,395,28.71c0-0.988,0.385-1.801,1.155-2.438
		c0.77-0.637,1.813-1.024,3.131-1.16v-1.805h1.429v1.772c1.454,0.05,2.832,0.344,4.136,0.881l-0.784,1.966
		c-1.125-0.444-2.242-0.709-3.352-0.795v3.91l0.816,0.312c1.36,0.523,2.302,1.074,2.825,1.654c0.522,0.58,0.784,1.289,0.784,2.127
		c0,1.039-0.38,1.895-1.139,2.567c-0.759,0.673-1.855,1.089-3.287,1.246v2.331h-1.429v-2.267c-1.776-0.028-3.233-0.301-4.372-0.816
		V35.929z M405.892,66.573h-2.116V70h-2.46v-3.427h-7.176v-1.944l7.176-10.377h2.46v10.227h2.116V66.573z"/>
</g>
<g>
	<path fill="#1B2026" d="M495.086,32.126c-0.473,0-0.815,0.258-1.026,0.773c-0.211,0.516-0.317,1.307-0.317,2.374
		c0,1.067,0.105,1.866,0.317,2.396c0.211,0.53,0.553,0.795,1.026,0.795c0.938,0,1.407-1.063,1.407-3.19
		C496.494,33.175,496.024,32.126,495.086,32.126z"/>
	<path fill="#1B2026" d="M486.267,29c0-2.112-0.473-3.169-1.418-3.169c-0.473,0-0.813,0.262-1.021,0.784
		c-0.208,0.523-0.312,1.318-0.312,2.385c0,1.067,0.104,1.862,0.312,2.385c0.208,0.523,0.548,0.784,1.021,0.784
		C485.794,32.169,486.267,31.113,486.267,29z"/>
	<path fill="#1B2026" d="M530,10h-60c-5.523,0-10,4.477-10,10v60c0,5.523,4.477,10,10,10h60c5.523,0,10-4.477,10-10V20
		C540,14.477,535.523,10,530,10z M482.319,32.647c-0.598-0.855-0.897-2.079-0.897-3.668c0-3.272,1.142-4.909,3.427-4.909
		c1.124,0,1.989,0.424,2.594,1.273c0.605,0.849,0.908,2.061,0.908,3.636c0,1.647-0.295,2.884-0.886,3.711s-1.463,1.241-2.616,1.241
		C483.76,33.931,482.917,33.503,482.319,32.647z M493.303,24.295h2.084L486.675,40h-2.084L493.303,24.295z M493.588,68.802
		c-1.049,0.942-2.541,1.413-4.474,1.413c-1.755,0-3.133-0.283-4.136-0.849v-2.288c0.58,0.33,1.246,0.584,1.998,0.763
		c0.752,0.179,1.45,0.269,2.095,0.269c1.139,0,2.005-0.254,2.6-0.763c0.594-0.508,0.892-1.253,0.892-2.234
		c0-1.876-1.196-2.814-3.588-2.814c-0.337,0-0.752,0.034-1.246,0.102c-0.494,0.068-0.928,0.145-1.3,0.231l-1.128-0.666l0.602-7.67
		h8.164v2.245h-5.94l-0.354,3.889c0.25-0.043,0.557-0.093,0.918-0.15c0.361-0.057,0.804-0.086,1.327-0.086
		c1.583,0,2.836,0.419,3.76,1.257s1.386,1.98,1.386,3.427C495.162,66.552,494.637,67.861,493.588,68.802z M497.686,38.979
		c-0.595,0.824-1.461,1.235-2.6,1.235c-1.089,0-1.934-0.424-2.535-1.273s-0.902-2.071-0.902-3.668c0-3.272,1.146-4.909,3.438-4.909
		c1.103,0,1.96,0.423,2.573,1.268c0.612,0.845,0.918,2.059,0.918,3.642C498.578,36.921,498.28,38.156,497.686,38.979z"/>
</g>
<g>
	<path fill="#1B2026" d="M580.274,61.997c-0.544,0-1.046,0.117-1.504,0.349c-0.458,0.233-0.82,0.552-1.085,0.956
		c-0.265,0.405-0.397,0.818-0.397,1.241c0,1.01,0.274,1.86,0.822,2.551c0.548,0.691,1.248,1.037,2.1,1.037
		c0.866,0,1.534-0.279,2.003-0.838c0.469-0.559,0.704-1.357,0.704-2.396c0-0.902-0.22-1.611-0.661-2.127
		S581.155,61.997,580.274,61.997z"/>
	<path fill="#1B2026" d="M620,10h-60c-5.523,0-10,4.477-10,10v60c0,5.523,4.477,10,10,10h60c5.523,0,10-4.477,10-10V20
		C630,14.477,625.523,10,620,10z M584.018,68.781c-0.92,0.956-2.175,1.434-3.765,1.434c-1.125,0-2.102-0.27-2.933-0.811
		c-0.831-0.541-1.47-1.328-1.917-2.363c-0.448-1.035-0.671-2.279-0.671-3.733c0-6.145,2.503-9.217,7.509-9.217
		c0.788,0,1.454,0.061,1.998,0.183v2.105c-0.544-0.157-1.175-0.236-1.891-0.236c-1.683,0-2.947,0.451-3.792,1.354
		c-0.845,0.902-1.304,2.349-1.375,4.34h0.129c0.336-0.58,0.809-1.029,1.418-1.348c0.608-0.318,1.325-0.478,2.148-0.478
		c1.425,0,2.535,0.437,3.33,1.311c0.795,0.874,1.192,2.059,1.192,3.556C585.398,66.523,584.938,67.825,584.018,68.781z
		 M583.513,34.253l-3.749-7.455l-3.298,7.455h-2.063l4.684-10.044h1.3l5.21,10.044H583.513z"/>
</g>
<g>
	<path fill="#1B2026" d="M710,10h-60c-5.523,0-10,4.477-10,10v60c0,5.523,4.477,10,10,10h60c5.523,0,10-4.477,10-10V20
		C720,14.477,715.523,10,710,10z M675.376,56.078L669.2,70h-2.729l6.209-13.46h-8.164v-2.224h10.86V56.078z M674.855,40
		l-1.601-1.558c-0.73,0.587-1.509,1.03-2.336,1.327s-1.742,0.446-2.745,0.446c-1.647,0-2.94-0.39-3.878-1.171
		c-0.938-0.78-1.407-1.848-1.407-3.201c0-0.938,0.229-1.756,0.688-2.455c0.458-0.698,1.285-1.391,2.481-2.079
		c-0.681-0.795-1.144-1.466-1.391-2.014s-0.371-1.115-0.371-1.703c0-1.088,0.388-1.948,1.166-2.578
		c0.777-0.63,1.821-0.945,3.131-0.945c1.268,0,2.263,0.306,2.986,0.918c0.723,0.612,1.085,1.438,1.085,2.476
		c0,0.816-0.242,1.558-0.725,2.224s-1.291,1.332-2.422,1.998l3.717,3.588c0.58-0.766,1.063-1.891,1.45-3.373h2.6
		c-0.501,2.034-1.304,3.692-2.406,4.974L678.11,40H674.855z"/>
	<path fill="#1B2026" d="M668.066,30.235c0.809-0.458,1.376-0.886,1.703-1.284c0.326-0.397,0.489-0.843,0.489-1.337
		c0-0.465-0.156-0.838-0.467-1.117s-0.725-0.419-1.241-0.419c-0.566,0-1.015,0.145-1.348,0.435s-0.5,0.679-0.5,1.166
		c0,0.451,0.12,0.877,0.36,1.278C667.302,29.358,667.637,29.784,668.066,30.235z"/>
	<path fill="#1B2026" d="M665.982,34.215c-0.287,0.426-0.43,0.912-0.43,1.456c0,0.702,0.249,1.273,0.747,1.713
		c0.498,0.44,1.166,0.661,2.003,0.661c1.311,0,2.431-0.383,3.362-1.149l-4.114-4.05C666.792,33.333,666.269,33.79,665.982,34.215z"
		/>
</g>
<g>
	<path fill="#1B2026" d="M758.512,59.811c0.301,0.24,0.81,0.528,1.525,0.865c0.859-0.379,1.467-0.779,1.821-1.198
		s0.532-0.908,0.532-1.466c0-0.608-0.221-1.09-0.661-1.445s-1.026-0.532-1.757-0.532c-0.716,0-1.293,0.177-1.729,0.532
		c-0.438,0.354-0.656,0.836-0.656,1.445c0,0.373,0.079,0.706,0.236,0.999C757.982,59.305,758.211,59.571,758.512,59.811z"/>
	<path fill="#1B2026" d="M800,10h-60c-5.523,0-10,4.477-10,10v60c0,5.523,4.477,10,10,10h60c5.523,0,10-4.477,10-10V20
		C810,14.477,805.523,10,800,10z M755.145,26.229l4.039,1.16l-0.44-4.104h2.449l-0.44,4.104l4.136-1.16l0.301,2.331l-3.867,0.312
		l2.535,3.341l-2.138,1.149l-1.783-3.631l-1.601,3.631l-2.202-1.149l2.481-3.341l-3.846-0.312L755.145,26.229z M763.904,69.044
		c-0.952,0.781-2.241,1.171-3.867,1.171c-1.704,0-3.025-0.365-3.963-1.096c-0.939-0.73-1.408-1.765-1.408-3.104
		c0-0.874,0.246-1.66,0.736-2.358s1.295-1.319,2.412-1.864c-0.961-0.573-1.645-1.178-2.053-1.815
		c-0.408-0.637-0.611-1.354-0.611-2.148c0-1.139,0.447-2.046,1.342-2.723c0.896-0.677,2.063-1.015,3.502-1.015
		c1.49,0,2.668,0.342,3.535,1.026c0.865,0.684,1.299,1.599,1.299,2.745c0,1.611-0.967,2.894-2.9,3.846
		c1.232,0.616,2.107,1.264,2.627,1.944c0.52,0.681,0.779,1.439,0.779,2.277C765.334,67.225,764.857,68.264,763.904,69.044z"/>
	<path fill="#1B2026" d="M760.059,62.985l-0.311-0.14c-0.945,0.416-1.627,0.872-2.041,1.37c-0.416,0.498-0.623,1.069-0.623,1.713
		c0,0.745,0.261,1.323,0.783,1.735c0.523,0.412,1.232,0.618,2.127,0.618c0.924,0,1.643-0.213,2.154-0.639
		c0.512-0.426,0.768-1.004,0.768-1.735c0-0.58-0.236-1.11-0.709-1.59C761.734,63.838,761.019,63.394,760.059,62.985z"/>
</g>
<g>
	<path fill="#1B2026" d="M851.359,56.669c-0.445-0.322-0.953-0.483-1.525-0.483c-0.875,0-1.544,0.285-2.01,0.854
		c-0.465,0.569-0.697,1.37-0.697,2.401c0,0.896,0.216,1.599,0.649,2.111c0.433,0.512,1.091,0.768,1.972,0.768
		c0.852,0,1.568-0.254,2.148-0.763c0.58-0.508,0.869-1.103,0.869-1.783c0-0.637-0.123-1.233-0.37-1.789
		C852.148,57.43,851.803,56.991,851.359,56.669z"/>
	<path fill="#1B2026" d="M890,10h-60c-5.523,0-10,4.477-10,10v60c0,5.523,4.477,10,10,10h60c5.523,0,10-4.477,10-10V20
		C900,14.477,895.523,10,890,10z M848.228,28.646c0.555-1.654,1.354-3.104,2.401-4.351h2.201c-0.995,1.347-1.758,2.856-2.287,4.528
		c-0.531,1.672-0.795,3.382-0.795,5.129c0,1.748,0.264,3.441,0.795,5.081c0.529,1.64,1.285,3.122,2.266,4.447h-2.18
		c-1.053-1.218-1.855-2.639-2.406-4.265c-0.553-1.625-0.828-3.373-0.828-5.242C847.395,32.076,847.672,30.3,848.228,28.646z
		 M853.443,67.927c-1.246,1.525-3.123,2.288-5.629,2.288c-0.953,0-1.637-0.058-2.053-0.172v-2.116
		c0.638,0.179,1.279,0.269,1.924,0.269c1.703,0,2.975-0.458,3.813-1.375c0.838-0.917,1.297-2.356,1.375-4.318h-0.129
		c-0.422,0.645-0.933,1.11-1.53,1.396c-0.599,0.287-1.298,0.43-2.101,0.43c-1.389,0-2.48-0.433-3.275-1.3
		c-0.795-0.866-1.193-2.055-1.193-3.566c0-1.64,0.461-2.945,1.381-3.916c0.92-0.97,2.176-1.456,3.766-1.456
		c1.117,0,2.09,0.272,2.922,0.816c0.83,0.544,1.471,1.334,1.922,2.369c0.451,1.035,0.678,2.276,0.678,3.722
		C855.313,64.092,854.689,66.401,853.443,67.927z"/>
</g>
<g>
	<path fill="#1B2026" d="M939.994,56.164c-0.967,0-1.67,0.462-2.11,1.386s-0.661,2.457-0.661,4.598c0,2.142,0.221,3.67,0.661,4.587
		c0.44,0.917,1.144,1.375,2.11,1.375s1.674-0.465,2.122-1.396c0.447-0.931,0.671-2.453,0.671-4.565c0-2.105-0.224-3.629-0.671-4.571
		C941.668,56.635,940.961,56.164,939.994,56.164z"/>
	<path fill="#1B2026" d="M980,10h-60c-5.523,0-10,4.477-10,10v60c0,5.523,4.477,10,10,10h60c5.523,0,10-4.477,10-10V20
		C990,14.477,985.523,10,980,10z M939.371,24.295c1.053,1.253,1.855,2.709,2.406,4.367c0.552,1.658,0.828,3.429,0.828,5.312
		c0,1.884-0.278,3.638-0.833,5.264c-0.556,1.625-1.355,3.04-2.401,4.243h-2.18c0.988-1.339,1.745-2.825,2.271-4.458
		s0.789-3.323,0.789-5.07c0-1.754-0.265-3.464-0.795-5.129c-0.529-1.665-1.293-3.174-2.287-4.528H939.371z M944.018,68.228
		c-0.877,1.325-2.219,1.987-4.023,1.987c-1.747,0-3.072-0.684-3.975-2.052c-0.902-1.368-1.354-3.373-1.354-6.016
		c0-2.771,0.439-4.814,1.316-6.128c0.877-1.314,2.215-1.971,4.012-1.971c1.755,0,3.084,0.688,3.986,2.063s1.354,3.388,1.354,6.037
		C945.334,64.876,944.895,66.903,944.018,68.228z"/>
</g>
<path fill="#1B2026" d="M1070,10h-60c-5.523,0-10,4.477-10,10v60c0,5.523,4.477,10,10,10h60c5.523,0,10-4.477,10-10V20
	C1080,14.477,1075.523,10,1070,10z M1027.234,33.028h5.521v2.148h-5.521V33.028z M1034.764,73.427h-9.527v-1.45h9.527V73.427z"/>
<path fill="#1B2026" d="M1160,10h-60c-5.523,0-10,4.477-10,10v60c0,5.523,4.477,10,10,10h60c5.523,0,10-4.477,10-10V20
	C1170,14.477,1165.523,10,1160,10z M1125.162,65.359h-10.346v-1.912h10.346V65.359z M1125.162,61.073h-10.346V59.15h10.346V61.073z
	 M1125.248,33.2h-4.287v4.361h-1.934V33.2h-4.275v-1.912h4.275v-4.383h1.934v4.383h4.287V33.2z"/>
<path fill="#1B2026" d="M1115,100h-60c-5.523,0-10,4.477-10,10v60c0,5.523,4.477,10,10,10h60c5.523,0,10-4.477,10-10v-60
	C1125,104.477,1120.523,100,1115,100z M1078.083,146.186h-2.75v15.394h2.75v1.901h-5.06v-19.186h5.06V146.186z M1078.754,116.25
	c-0.816,0.036-1.408,0.203-1.777,0.5c-0.369,0.297-0.553,0.74-0.553,1.327v3.19c0,1.425-0.82,2.277-2.461,2.557v0.129
	c1.641,0.258,2.461,1.106,2.461,2.546v3.212c0,0.587,0.182,1.031,0.547,1.332s0.96,0.458,1.783,0.473v1.966
	c-1.654-0.015-2.845-0.295-3.571-0.843c-0.728-0.548-1.091-1.434-1.091-2.659v-3.062c0-1.332-0.952-1.998-2.857-1.998v-2.052
	c0.967,0,1.686-0.163,2.154-0.489c0.469-0.326,0.703-0.822,0.703-1.488v-3.341c0-1.117,0.389-1.939,1.166-2.465
	s1.942-0.79,3.496-0.79V116.25z"/>
<path fill="#1B2026" d="M1205,100h-60c-5.523,0-10,4.477-10,10v60c0,5.523,4.477,10,10,10h60c5.523,0,10-4.477,10-10v-60
	C1215,104.477,1210.523,100,1205,100z M1166.955,163.48h-5.038v-1.901h2.75v-15.394h-2.75v-1.891h5.038V163.48z M1168.599,124.919
	c-0.881,0-1.552,0.152-2.015,0.457c-0.461,0.305-0.692,0.818-0.692,1.542v3.298c0,1.117-0.356,1.937-1.069,2.46
	c-0.713,0.522-1.853,0.791-3.421,0.806v-1.966c0.681-0.007,1.21-0.145,1.59-0.414s0.569-0.732,0.569-1.391v-2.814
	c0-0.866,0.189-1.536,0.569-2.009s1.01-0.784,1.891-0.935v-0.129c-1.64-0.279-2.46-1.131-2.46-2.557v-3.19
	c0-0.587-0.163-1.029-0.488-1.327c-0.326-0.297-0.883-0.463-1.671-0.5v-1.955c1.597,0,2.745,0.274,3.442,0.822
	c0.699,0.548,1.048,1.445,1.048,2.691v3.083c0,0.716,0.228,1.225,0.683,1.525c0.454,0.301,1.129,0.451,2.024,0.451V124.919z"/>
<path fill="#1B2026" d="M1335,100h-100c-5.523,0-10,4.477-10,10v60c0,5.523,4.477,10,10,10h100c5.523,0,10-4.477,10-10v-60
	C1345,104.477,1340.523,100,1335,100z M1254.022,113.328h1.934v21.839h-1.934V113.328z M1256.734,160l-5.854-15.705h2.385
	l5.844,15.705H1256.734z"/>
<path fill="#1B2026" d="M1065,190h-60c-5.523,0-10,4.477-10,10v60c0,5.523,4.477,10,10,10h60c5.523,0,10-4.477,10-10v-60
	C1075,194.477,1070.523,190,1065,190z M1024.479,252.836h-1.857c0.494-1.934,0.862-3.73,1.105-5.393h2.482l0.16,0.247
	C1026.025,249.022,1025.396,250.737,1024.479,252.836z M1026.128,240.691c-0.276,0.298-0.671,0.446-1.187,0.446
	s-0.91-0.146-1.182-0.44c-0.273-0.293-0.408-0.698-0.408-1.214c0-1.081,0.529-1.622,1.59-1.622c0.537,0,0.938,0.144,1.203,0.43
	c0.264,0.287,0.396,0.684,0.396,1.192S1026.403,240.395,1026.128,240.691z M1026.182,219.866c-0.275,0.297-0.672,0.446-1.188,0.446
	s-0.909-0.147-1.182-0.44c-0.271-0.293-0.408-0.698-0.408-1.214c0-0.522,0.137-0.924,0.408-1.203
	c0.272-0.279,0.666-0.419,1.182-0.419c0.523,0,0.92,0.145,1.193,0.435c0.271,0.29,0.408,0.686,0.408,1.187
	C1026.596,219.166,1026.457,219.569,1026.182,219.866z M1026.182,210.692c-0.275,0.297-0.672,0.446-1.188,0.446
	s-0.909-0.146-1.182-0.44c-0.271-0.293-0.408-0.698-0.408-1.214c0-1.081,0.53-1.622,1.59-1.622c0.537,0,0.938,0.144,1.203,0.43
	c0.266,0.287,0.398,0.684,0.398,1.192C1026.596,209.992,1026.457,210.395,1026.182,210.692z"/>
<path fill="#1B2026" d="M1155,190h-60c-5.523,0-10,4.477-10,10v60c0,5.523,4.477,10,10,10h60c5.523,0,10-4.477,10-10v-60
	C1165,194.477,1160.523,190,1155,190z M1110.902,209.44c0.143-0.594,0.396-1.396,0.762-2.406s0.742-1.923,1.129-2.739h1.826
	c-0.459,1.833-0.82,3.627-1.086,5.382h-2.502L1110.902,209.44z M1115.779,239.677h-2.504l-0.129-0.236
	c0.144-0.595,0.398-1.396,0.764-2.406s0.74-1.923,1.127-2.739h1.826C1116.405,236.129,1116.043,237.922,1115.779,239.677z
	 M1118.023,209.677h-2.502l-0.162-0.236c0.38-1.454,1.018-3.169,1.912-5.146h1.826
	C1118.604,206.415,1118.246,208.209,1118.023,209.677z"/>
<path fill="#1B2026" d="M925,280h-60c-5.523,0-10,4.477-10,10v60c0,5.523,4.477,10,10,10h60c5.523,0,10-4.477,10-10v-60
	C935,284.477,930.523,280,925,280z M884.598,342.836h-1.859c0.494-1.934,0.863-3.73,1.107-5.393h2.48l0.162,0.247
	C886.145,339.022,885.514,340.737,884.598,342.836z M890.248,298.56l-7.875,3.695l7.875,3.255v2.116l-10.496-4.619v-1.3
	l10.496-5.242V298.56z"/>
<path fill="#1B2026" d="M1015,280h-60c-5.523,0-10,4.477-10,10v60c0,5.523,4.477,10,10,10h60c5.523,0,10-4.477,10-10v-60
	C1025,284.477,1020.523,280,1015,280z M976.182,339.865c-0.275,0.297-0.672,0.446-1.188,0.446s-0.909-0.147-1.182-0.44
	c-0.271-0.293-0.408-0.698-0.408-1.214c0-0.522,0.137-0.924,0.408-1.203c0.272-0.279,0.666-0.419,1.182-0.419
	c0.523,0,0.92,0.145,1.193,0.436c0.271,0.289,0.408,0.686,0.408,1.187C976.596,339.166,976.457,339.568,976.182,339.865z
	 M980.248,303.007l-10.496,4.619v-2.116l7.875-3.255l-7.875-3.695v-2.095l10.496,5.242V303.007z"/>
<path fill="#1B2026" d="M1105,280h-60c-5.523,0-10,4.477-10,10v60c0,5.523,4.477,10,10,10h60c5.523,0,10-4.477,10-10v-60
	C1115,284.477,1110.523,280,1105,280z M1063.266,340h-2.385l5.854-15.705h2.375L1063.266,340z M1062.615,308.657
	c0-1.081,0.526-1.622,1.579-1.622c0.516,0,0.909,0.142,1.182,0.424c0.272,0.283,0.408,0.683,0.408,1.198
	c0,0.509-0.138,0.911-0.413,1.208c-0.276,0.297-0.668,0.446-1.177,0.446s-0.899-0.146-1.171-0.435
	C1062.751,309.586,1062.615,309.18,1062.615,308.657z M1069.2,299.381c-0.157,0.42-0.396,0.818-0.714,1.198
	c-0.319,0.38-0.869,0.874-1.649,1.482c-0.666,0.522-1.112,0.956-1.337,1.3c-0.227,0.344-0.339,0.806-0.339,1.386v0.483h-2.105
	v-0.688c0-0.787,0.144-1.443,0.43-1.966s0.788-1.063,1.504-1.622c0.853-0.673,1.401-1.195,1.649-1.568
	c0.246-0.372,0.37-0.816,0.37-1.332c0-0.602-0.2-1.063-0.602-1.386s-0.978-0.483-1.729-0.483c-0.681,0-1.311,0.097-1.891,0.29
	s-1.146,0.427-1.697,0.698l-0.902-1.891c1.453-0.809,3.012-1.214,4.673-1.214c1.403,0,2.517,0.344,3.341,1.031
	c0.823,0.688,1.235,1.637,1.235,2.847C1069.437,298.484,1069.357,298.963,1069.2,299.381z"/>
<g>
	<path fill="#1B2026" d="M125,100H20c-5.523,0-10,4.477-10,10v60c0,5.523,4.477,10,10,10h105c5.523,0,10-4.477,10-10v-60
		C135,104.477,130.523,100,125,100z M41.016,125.725h-4.199V138h-2.334v-12.275h-4.199v-2.002h10.732V125.725z M51.357,138h-1.641
		l-0.459-1.504H49.18c-0.521,0.658-1.045,1.105-1.572,1.343s-1.205,0.356-2.031,0.356c-1.061,0-1.89-0.287-2.485-0.859
		s-0.894-1.383-0.894-2.432c0-1.113,0.414-1.953,1.24-2.52s2.086-0.875,3.779-0.928l1.865-0.059v-0.576
		c0-0.69-0.161-1.206-0.483-1.548s-0.822-0.513-1.499-0.513c-0.553,0-1.084,0.082-1.592,0.244s-0.996,0.355-1.465,0.576
		l-0.742-1.641c0.586-0.306,1.227-0.539,1.924-0.698s1.354-0.239,1.973-0.239c1.374,0,2.411,0.299,3.11,0.898s1.05,1.54,1.05,2.822
		V138z M63.213,136.716c-0.762,0.986-1.82,1.479-3.174,1.479c-1.367,0-2.428-0.492-3.184-1.475h-0.156L56.279,138h-1.719v-15.195
		h2.295v3.613c0,0.267-0.013,0.664-0.039,1.191s-0.045,0.863-0.059,1.006h0.098c0.729-1.074,1.803-1.611,3.223-1.611
		c1.348,0,2.397,0.488,3.149,1.465s1.128,2.347,1.128,4.111C64.355,134.351,63.975,135.729,63.213,136.716z"/>
	<path fill="#1B2026" d="M45.317,133.444c-0.492,0.322-0.737,0.815-0.737,1.479c0,0.482,0.143,0.854,0.43,1.118
		s0.716,0.396,1.289,0.396c0.833,0,1.502-0.233,2.007-0.698s0.757-1.118,0.757-1.958v-0.938l-1.387,0.059
		C46.595,132.941,45.809,133.122,45.317,133.444z"/>
	<path fill="#1B2026" d="M59.482,128.879c-0.924,0-1.59,0.272-1.997,0.815s-0.617,1.454-0.63,2.729v0.156
		c0,1.315,0.208,2.267,0.625,2.856s1.097,0.884,2.041,0.884c0.814,0,1.431-0.322,1.851-0.967s0.63-1.576,0.63-2.793
		C62.002,130.106,61.162,128.879,59.482,128.879z"/>
</g>
<path fill="#1B2026" d="M125,370H20c-5.523,0-10,4.477-10,10v60c0,5.523,4.477,10,10,10h105c5.523,0,10-4.477,10-10v-60
	C135,374.477,130.523,370,125,370z M34.751,404.855c0.739,0.898,1.808,1.348,3.208,1.348c0.605,0,1.191-0.061,1.758-0.181
	s1.156-0.274,1.768-0.464v2.002c-1.12,0.424-2.389,0.635-3.809,0.635c-2.09,0-3.695-0.633-4.814-1.899s-1.68-3.077-1.68-5.435
	c0-1.484,0.272-2.783,0.815-3.896s1.33-1.967,2.358-2.559s2.236-0.889,3.623-0.889c1.458,0,2.806,0.307,4.043,0.918l-0.84,1.943
	c-0.482-0.229-0.991-0.428-1.528-0.601s-1.102-0.259-1.694-0.259c-1.341,0-2.396,0.475-3.164,1.426s-1.152,2.262-1.152,3.936
	C33.643,402.633,34.012,403.957,34.751,404.855z M50.02,407.805c-0.254,0.111-0.581,0.203-0.981,0.278s-0.815,0.112-1.245,0.112
	c-2.174,0-3.262-1.146-3.262-3.438v-5.82h-1.475v-1.016l1.582-0.84l0.781-2.285h1.416v2.402h3.076v1.738h-3.076v5.781
	c0,0.553,0.138,0.962,0.415,1.226s0.64,0.396,1.089,0.396c0.56,0,1.12-0.088,1.68-0.264V407.805z M58.574,399.24
	c-0.326-0.078-0.664-0.117-1.016-0.117c-0.918,0-1.662,0.299-2.231,0.898s-0.854,1.377-0.854,2.334V408h-2.295v-10.801h1.797
	l0.303,1.904h0.117c0.358-0.645,0.825-1.156,1.401-1.533s1.196-0.566,1.86-0.566c0.462,0,0.843,0.033,1.143,0.098L58.574,399.24z
	 M63.096,408h-2.295v-15.195h2.295V408z"/>
<g>
	<path fill="#1B2026" d="M261.958,396.906c-0.172-0.561-0.292-0.971-0.356-1.23c-0.176,0.801-0.433,1.676-0.771,2.627l-1.289,3.721
		h4.16l-1.338-3.887C262.266,397.877,262.13,397.467,261.958,396.906z"/>
	<path fill="#1B2026" d="M340,370h-95c-5.523,0-10,4.477-10,10v60c0,5.523,4.477,10,10,10h95c5.523,0,10-4.477,10-10v-60
		C350,374.477,345.523,370,340,370z M265.742,408l-1.426-3.965h-5.459L257.461,408H255l5.342-14.336h2.539L268.223,408H265.742z
		 M272.158,408h-2.295v-15.195h2.295V408z M281.143,407.805c-0.254,0.111-0.581,0.203-0.981,0.278s-0.815,0.112-1.245,0.112
		c-2.174,0-3.262-1.146-3.262-3.438v-5.82h-1.475v-1.016l1.582-0.84l0.781-2.285h1.416v2.402h3.076v1.738h-3.076v5.781
		c0,0.553,0.138,0.962,0.415,1.226s0.64,0.396,1.089,0.396c0.56,0,1.12-0.088,1.68-0.264V407.805z"/>
</g>
<g>
	<path fill="#1B2026" d="M215,100h-60c-5.523,0-10,4.477-10,10v60c0,5.523,4.477,10,10,10h60c5.523,0,10-4.477,10-10v-60
		C225,104.477,220.523,100,215,100z M180.512,141.738h-3.459l-2.965-3.523h-0.419c-2.371,0-4.191-0.704-5.462-2.111
		c-1.271-1.407-1.907-3.407-1.907-6c0-2.592,0.639-4.583,1.917-5.973c1.278-1.389,3.103-2.084,5.473-2.084
		c2.334,0,4.139,0.706,5.414,2.116c1.274,1.411,1.912,3.398,1.912,5.962c0,1.905-0.364,3.509-1.09,4.813
		c-0.727,1.304-1.785,2.22-3.174,2.75L180.512,141.738z"/>
	<path fill="#1B2026" d="M173.69,124.25c-1.54,0-2.702,0.498-3.486,1.493c-0.784,0.996-1.176,2.457-1.176,4.383
		c0,1.934,0.39,3.4,1.171,4.399c0.78,0.999,1.937,1.499,3.47,1.499c1.525,0,2.676-0.494,3.454-1.482
		c0.777-0.988,1.166-2.46,1.166-4.415c0-1.926-0.385-3.387-1.155-4.383C176.363,124.748,175.216,124.25,173.69,124.25z"/>
</g>
<path fill="#1B2026" d="M305,100h-60c-5.523,0-10,4.477-10,10v60c0,5.523,4.477,10,10,10h60c5.523,0,10-4.477,10-10v-60
	C315,104.477,310.523,100,305,100z M271.564,138h-2.793l-2.664-9.367c-0.115-0.408-0.258-0.997-0.43-1.767
	c-0.172-0.77-0.276-1.305-0.312-1.606c-0.072,0.458-0.188,1.053-0.349,1.783s-0.295,1.275-0.403,1.633l-2.6,9.324h-2.793
	l-2.03-7.863l-2.063-7.842h2.621l2.245,9.152c0.351,1.468,0.602,2.765,0.752,3.889c0.079-0.608,0.197-1.289,0.354-2.041
	c0.157-0.752,0.301-1.36,0.43-1.826l2.557-9.174h2.546l2.621,9.217c0.25,0.853,0.516,2.127,0.795,3.824
	c0.107-1.024,0.365-2.327,0.773-3.91l2.234-9.131h2.6L271.564,138z"/>
<path fill="#1B2026" d="M395,100h-60c-5.523,0-10,4.477-10,10v60c0,5.523,4.477,10,10,10h60c5.523,0,10-4.477,10-10v-60
	C405,104.477,400.523,100,395,100z M355.957,124.465h-6.316v4.275h5.919v2.148h-5.919v4.931h6.316V138h-8.884v-15.705h8.884V124.465
	z"/>
<g>
	<path fill="#1B2026" d="M485,100h-60c-5.523,0-10,4.477-10,10v60c0,5.523,4.477,10,10,10h60c5.523,0,10-4.477,10-10v-60
		C495,104.477,490.523,100,485,100z M445.936,138l-3.76-6.273h-2.535V138h-2.567v-15.705h4.437c2.026,0,3.527,0.38,4.501,1.139
		c0.974,0.759,1.461,1.905,1.461,3.438c0,1.955-1.017,3.348-3.051,4.179l4.437,6.95H445.936z"/>
	<path fill="#1B2026" d="M443.959,125.045c-0.58-0.387-1.454-0.58-2.621-0.58h-1.697v5.135h1.783c1.196,0,2.063-0.222,2.6-0.666
		c0.537-0.444,0.806-1.103,0.806-1.977C444.829,126.069,444.539,125.432,443.959,125.045z"/>
</g>
<path fill="#1B2026" d="M575,100h-60c-5.523,0-10,4.477-10,10v60c0,5.523,4.477,10,10,10h60c5.523,0,10-4.477,10-10v-60
	C585,104.477,580.523,100,575,100z M537.117,124.497h-4.619V138h-2.567v-13.503h-4.619v-2.202h11.806V124.497z"/>
<path fill="#1B2026" d="M665,100h-60c-5.523,0-10,4.477-10,10v60c0,5.523,4.477,10,10,10h60c5.523,0,10-4.477,10-10v-60
	C675,104.477,670.523,100,665,100z M622.788,131.909V138h-2.578v-6.005l-5.21-9.7h2.793l3.717,7.165l3.717-7.165h2.793
	L622.788,131.909z"/>
<path fill="#1B2026" d="M755,100h-60c-5.523,0-10,4.477-10,10v60c0,5.523,4.477,10,10,10h60c5.523,0,10-4.477,10-10v-60
	C765,104.477,760.523,100,755,100z M719.384,132.457c0,1.16-0.249,2.175-0.747,3.045c-0.498,0.87-1.218,1.54-2.159,2.009
	c-0.942,0.469-2.068,0.704-3.378,0.704c-1.948,0-3.463-0.516-4.544-1.547c-1.082-1.031-1.622-2.449-1.622-4.254v-10.119h2.578v9.937
	c0,1.296,0.301,2.252,0.902,2.868c0.602,0.616,1.525,0.924,2.771,0.924c2.42,0,3.631-1.271,3.631-3.813v-9.915h2.567V132.457z"/>
<path fill="#1B2026" d="M845,100h-60c-5.523,0-10,4.477-10,10v60c0,5.523,4.477,10,10,10h60c5.523,0,10-4.477,10-10v-60
	C855,104.477,850.523,100,845,100z M799.641,138h-2.567v-15.705h2.567V138z"/>
<g>
	<path fill="#1B2026" d="M893.69,124.25c-1.54,0-2.702,0.498-3.485,1.493c-0.785,0.996-1.177,2.457-1.177,4.383
		c0,1.934,0.39,3.4,1.171,4.399c0.78,0.999,1.938,1.499,3.47,1.499c1.525,0,2.677-0.494,3.454-1.482
		c0.776-0.988,1.165-2.46,1.165-4.415c0-1.926-0.386-3.387-1.155-4.383C896.363,124.748,895.216,124.25,893.69,124.25z"/>
	<path fill="#1B2026" d="M935,100h-60c-5.523,0-10,4.477-10,10v60c0,5.523,4.477,10,10,10h60c5.523,0,10-4.477,10-10v-60
		C945,104.477,940.523,100,935,100z M899.1,136.088c-1.279,1.418-3.089,2.127-5.431,2.127c-2.37,0-4.191-0.704-5.462-2.111
		c-1.271-1.407-1.907-3.407-1.907-6c0-2.592,0.64-4.583,1.917-5.973c1.279-1.389,3.104-2.084,5.474-2.084
		c2.335,0,4.14,0.706,5.414,2.116c1.274,1.411,1.912,3.398,1.912,5.962C901.017,132.683,900.377,134.67,899.1,136.088z"/>
</g>
<g>
	<path fill="#1B2026" d="M981.424,124.443h-1.783v5.521h1.364c1.317,0,2.284-0.229,2.9-0.688c0.616-0.458,0.924-1.174,0.924-2.148
		c0-0.902-0.276-1.575-0.827-2.02C983.45,124.666,982.591,124.443,981.424,124.443z"/>
	<path fill="#1B2026" d="M1025,100h-60c-5.523,0-10,4.477-10,10v60c0,5.523,4.477,10,10,10h60c5.523,0,10-4.477,10-10v-60
		C1035,104.477,1030.523,100,1025,100z M985.86,130.813c-1.074,0.874-2.604,1.311-4.587,1.311h-1.633V138h-2.567v-15.705h4.522
		c1.962,0,3.432,0.401,4.41,1.203c0.977,0.802,1.466,1.984,1.466,3.545C987.472,128.683,986.935,129.94,985.86,130.813z"/>
</g>
<g>
	<path fill="#1B2026" d="M1240.835,43.444c-0.491,0.322-0.737,0.815-0.737,1.479c0,0.482,0.143,0.854,0.43,1.118
		s0.717,0.396,1.289,0.396c0.834,0,1.502-0.233,2.007-0.698s0.757-1.118,0.757-1.958v-0.938l-1.387,0.059
		C1242.113,42.941,1241.326,43.122,1240.835,43.444z"/>
	<path fill="#1B2026" d="M1286.074,38.879c-0.912,0-1.577,0.267-1.997,0.801s-0.63,1.387-0.63,2.559v0.342
		c0,1.315,0.209,2.267,0.625,2.856s1.098,0.884,2.041,0.884c0.795,0,1.406-0.326,1.836-0.977s0.645-1.579,0.645-2.783
		c0-1.211-0.213-2.127-0.64-2.749S1286.9,38.879,1286.074,38.879z"/>
	<path fill="#1B2026" d="M1295.972,43.444c-0.491,0.322-0.737,0.815-0.737,1.479c0,0.482,0.143,0.854,0.43,1.118
		s0.717,0.396,1.289,0.396c0.834,0,1.502-0.233,2.007-0.698s0.757-1.118,0.757-1.958v-0.938l-1.387,0.059
		C1297.25,42.941,1296.463,43.122,1295.972,43.444z"/>
	<path fill="#1B2026" d="M1232.236,39.157c0.449-0.309,0.674-0.835,0.674-1.577c0-0.67-0.242-1.156-0.728-1.455
		s-1.255-0.449-2.31-0.449h-2.021v3.945h2.246C1231.074,39.621,1231.787,39.466,1232.236,39.157z"/>
	<path fill="#1B2026" d="M1335,10h-145c-5.523,0-10,4.477-10,10v60c0,5.523,4.477,10,10,10h145c5.523,0,10-4.477,10-10V20
		C1345,14.477,1340.523,10,1335,10z M1234.409,46.911c-0.896,0.726-2.14,1.089-3.735,1.089h-5.156V33.723h4.238
		c1.967,0,3.387,0.287,4.263,0.859s1.313,1.478,1.313,2.715c0,0.833-0.215,1.527-0.645,2.08s-1.049,0.902-1.855,1.045v0.098
		c1.002,0.189,1.74,0.562,2.212,1.118s0.708,1.31,0.708,2.261C1235.752,45.181,1235.305,46.185,1234.409,46.911z M1246.875,48
		h-1.641l-0.459-1.504h-0.078c-0.521,0.658-1.045,1.105-1.572,1.343s-1.205,0.356-2.031,0.356c-1.061,0-1.89-0.287-2.485-0.859
		s-0.894-1.383-0.894-2.432c0-1.113,0.414-1.953,1.24-2.52s2.086-0.875,3.779-0.928l1.865-0.059v-0.576
		c0-0.69-0.161-1.206-0.483-1.548s-0.821-0.513-1.499-0.513c-0.553,0-1.084,0.082-1.592,0.244s-0.996,0.355-1.465,0.576
		l-0.742-1.641c0.586-0.306,1.227-0.539,1.924-0.698s1.354-0.239,1.973-0.239c1.373,0,2.41,0.299,3.11,0.898s1.05,1.54,1.05,2.822
		V48z M1252.495,45.368c0.466,0.609,1.147,0.913,2.046,0.913c1.021,0,1.988-0.254,2.9-0.762v2.002
		c-0.41,0.241-0.848,0.414-1.313,0.518s-1.03,0.156-1.694,0.156c-1.635,0-2.876-0.477-3.726-1.431s-1.274-2.323-1.274-4.106
		c0-1.816,0.444-3.213,1.333-4.189s2.173-1.465,3.853-1.465c1.139,0,2.164,0.211,3.076,0.635l-0.693,1.846
		c-0.971-0.377-1.771-0.566-2.402-0.566c-1.869,0-2.803,1.24-2.803,3.721C1251.797,43.85,1252.029,44.759,1252.495,45.368z
		 M1266.982,48l-3.467-4.736l-1.26,1.035V48h-2.275V32.805h2.275v7.412l-0.117,2.08h0.059l1.299-1.621l3.262-3.477h2.646
		l-4.346,4.639l4.619,6.162H1266.982z M1277.52,47.351c-0.768,0.563-1.869,0.845-3.301,0.845c-1.439,0-2.594-0.218-3.467-0.654
		v-1.982c1.27,0.586,2.451,0.879,3.545,0.879c1.412,0,2.119-0.426,2.119-1.279c0-0.273-0.078-0.501-0.234-0.684
		s-0.414-0.371-0.771-0.566s-0.855-0.417-1.494-0.664c-1.244-0.482-2.085-0.963-2.524-1.445s-0.659-1.107-0.659-1.875
		c0-0.924,0.373-1.642,1.118-2.153s1.759-0.767,3.042-0.767c1.27,0,2.471,0.257,3.604,0.771l-0.742,1.729
		c-1.166-0.482-2.145-0.723-2.939-0.723c-1.211,0-1.816,0.345-1.816,1.035c0,0.338,0.158,0.625,0.474,0.859s1.005,0.557,2.065,0.967
		c0.893,0.345,1.539,0.661,1.943,0.947s0.703,0.617,0.898,0.991s0.293,0.822,0.293,1.343
		C1278.672,45.979,1278.287,46.788,1277.52,47.351z M1289.8,46.711c-0.765,0.99-1.821,1.484-3.169,1.484
		c-1.367,0-2.428-0.492-3.184-1.475h-0.137c0.092,0.912,0.137,1.465,0.137,1.66v4.424h-2.295V37.199h1.855
		c0.053,0.202,0.16,0.684,0.322,1.445h0.117c0.717-1.094,1.791-1.641,3.223-1.641c1.348,0,2.397,0.488,3.149,1.465
		s1.128,2.347,1.128,4.111S1290.564,45.721,1289.8,46.711z M1302.012,48h-1.641l-0.459-1.504h-0.078
		c-0.521,0.658-1.045,1.105-1.572,1.343s-1.205,0.356-2.031,0.356c-1.061,0-1.89-0.287-2.485-0.859s-0.894-1.383-0.894-2.432
		c0-1.113,0.414-1.953,1.24-2.52s2.086-0.875,3.779-0.928l1.865-0.059v-0.576c0-0.69-0.161-1.206-0.483-1.548
		s-0.821-0.513-1.499-0.513c-0.553,0-1.084,0.082-1.592,0.244s-0.996,0.355-1.465,0.576l-0.742-1.641
		c0.586-0.306,1.227-0.539,1.924-0.698s1.354-0.239,1.973-0.239c1.373,0,2.41,0.299,3.11,0.898s1.05,1.54,1.05,2.822V48z
		 M1307.632,45.368c0.466,0.609,1.147,0.913,2.046,0.913c1.021,0,1.988-0.254,2.9-0.762v2.002c-0.41,0.241-0.848,0.414-1.313,0.518
		s-1.03,0.156-1.694,0.156c-1.635,0-2.876-0.477-3.726-1.431s-1.274-2.323-1.274-4.106c0-1.816,0.444-3.213,1.333-4.189
		s2.173-1.465,3.853-1.465c1.139,0,2.164,0.211,3.076,0.635l-0.693,1.846c-0.971-0.377-1.771-0.566-2.402-0.566
		c-1.869,0-2.803,1.24-2.803,3.721C1306.934,43.85,1307.166,44.759,1307.632,45.368z M1324.033,43.117h-7.197
		c0.033,1.048,0.316,1.854,0.85,2.417s1.285,0.845,2.256,0.845c0.639,0,1.232-0.06,1.782-0.181s1.142-0.321,1.772-0.601v1.865
		c-0.561,0.267-1.127,0.456-1.699,0.566s-1.227,0.166-1.963,0.166c-1.68,0-2.993-0.49-3.94-1.47s-1.421-2.329-1.421-4.048
		c0-1.764,0.439-3.151,1.318-4.16s2.086-1.514,3.623-1.514c1.426,0,2.553,0.433,3.379,1.299s1.24,2.057,1.24,3.574V43.117z"/>
	<path fill="#1B2026" d="M1319.414,38.742c-0.729,0-1.313,0.231-1.753,0.693s-0.702,1.136-0.786,2.021h4.902
		c-0.014-0.892-0.229-1.567-0.645-2.026S1320.143,38.742,1319.414,38.742z"/>
	<path fill="#1B2026" d="M1232.529,42.053c-0.508-0.358-1.279-0.537-2.314-0.537h-2.363v4.521h2.48c0.977,0,1.714-0.187,2.212-0.562
		s0.747-0.965,0.747-1.772C1233.291,42.961,1233.037,42.411,1232.529,42.053z"/>
</g>
<g>
	<path fill="#1B2026" d="M1335,190h-150c-5.523,0-10,4.477-10,10v60c0,5.523,4.477,10,10,10h150c5.523,0,10-4.477,10-10v-60
		C1345,194.477,1340.523,190,1335,190z M1283.096,215.695h-5.742v3.887h5.381v1.953h-5.381v4.482h5.742V228h-8.076v-14.277h8.076
		V215.695z M1295.439,228h-2.305v-6.641c0-0.833-0.168-1.455-0.503-1.865s-0.868-0.615-1.597-0.615c-0.971,0-1.68,0.287-2.129,0.859
		s-0.674,1.533-0.674,2.881V228h-2.295v-10.801h1.797l0.322,1.416h0.117c0.326-0.514,0.787-0.912,1.387-1.191s1.264-0.42,1.992-0.42
		c2.592,0,3.887,1.318,3.887,3.955V228z M1304.336,227.805c-0.254,0.111-0.581,0.204-0.981,0.278s-0.815,0.112-1.245,0.112
		c-2.174,0-3.262-1.146-3.262-3.438v-5.82h-1.475v-1.016l1.582-0.84l0.781-2.285h1.416v2.402h3.076v1.738h-3.076v5.781
		c0,0.553,0.139,0.962,0.415,1.226s0.64,0.396,1.089,0.396c0.561,0,1.119-0.088,1.68-0.264V227.805z M1315.41,223.117h-7.197
		c0.033,1.048,0.316,1.854,0.85,2.417s1.285,0.845,2.256,0.845c0.639,0,1.232-0.06,1.782-0.181s1.142-0.321,1.772-0.601v1.865
		c-0.561,0.267-1.127,0.456-1.699,0.566s-1.227,0.166-1.963,0.166c-1.68,0-2.993-0.49-3.94-1.47s-1.421-2.329-1.421-4.048
		c0-1.764,0.439-3.151,1.318-4.16s2.086-1.514,3.623-1.514c1.426,0,2.553,0.433,3.379,1.299s1.24,2.057,1.24,3.574V223.117z
		 M1324.414,219.24c-0.326-0.078-0.664-0.117-1.016-0.117c-0.918,0-1.662,0.299-2.231,0.898s-0.854,1.377-0.854,2.334V228h-2.295
		v-10.801h1.797l0.303,1.904h0.117c0.357-0.645,0.825-1.156,1.401-1.533s1.196-0.566,1.86-0.566c0.463,0,0.844,0.033,1.143,0.098
		L1324.414,219.24z"/>
	<path fill="#1B2026" d="M1310.791,218.742c-0.729,0-1.313,0.231-1.753,0.693s-0.702,1.136-0.786,2.021h4.902
		c-0.014-0.892-0.229-1.567-0.645-2.026S1311.52,218.742,1310.791,218.742z"/>
</g>
<path fill="#1B2026" d="M1245,280h-110c-5.523,0-10,4.477-10,10v60c0,5.523,4.477,10,10,10h110c5.523,0,10-4.477,10-10v-60
	C1255,284.477,1250.523,280,1245,280z M1199.355,317.111c-0.918,0.723-2.184,1.084-3.799,1.084s-2.936-0.25-3.965-0.752v-2.207
	c0.65,0.307,1.343,0.547,2.075,0.723s1.415,0.264,2.046,0.264c0.924,0,1.606-0.176,2.046-0.527s0.659-0.824,0.659-1.416
	c0-0.533-0.201-0.986-0.605-1.357s-1.236-0.811-2.5-1.318c-1.303-0.527-2.221-1.129-2.754-1.807s-0.801-1.49-0.801-2.441
	c0-1.191,0.424-2.129,1.27-2.813s1.982-1.025,3.408-1.025c1.367,0,2.729,0.299,4.082,0.898l-0.742,1.904
	c-1.27-0.533-2.402-0.801-3.398-0.801c-0.756,0-1.328,0.164-1.719,0.493s-0.586,0.763-0.586,1.304c0,0.371,0.078,0.688,0.234,0.952
	s0.414,0.513,0.771,0.747s1.002,0.543,1.934,0.928c1.049,0.436,1.816,0.844,2.305,1.221s0.846,0.805,1.074,1.279
	s0.342,1.035,0.342,1.68C1200.732,315.393,1200.273,316.389,1199.355,317.111z M1212.754,318h-2.305v-6.641
	c0-0.834-0.168-1.455-0.503-1.865s-0.868-0.615-1.597-0.615c-0.963,0-1.672,0.288-2.124,0.864s-0.679,1.542-0.679,2.896V318h-2.295
	v-15.195h2.295v3.857c0,0.619-0.039,1.279-0.117,1.982h0.146c0.313-0.521,0.747-0.924,1.304-1.211s1.206-0.43,1.948-0.43
	c2.617,0,3.926,1.318,3.926,3.955V318z M1218.242,318h-2.295v-10.801h2.295V318z M1218.052,305.261
	c-0.225,0.225-0.538,0.337-0.942,0.337c-0.416,0-0.737-0.112-0.962-0.337s-0.337-0.532-0.337-0.923c0-0.41,0.112-0.727,0.337-0.947
	s0.546-0.332,0.962-0.332c0.404,0,0.718,0.111,0.942,0.332s0.337,0.537,0.337,0.947
	C1218.389,304.729,1218.276,305.036,1218.052,305.261z M1226.943,307.199v1.738h-2.637V318h-2.305v-9.063h-1.777v-1.074l1.777-0.703
	v-0.703c0-1.275,0.299-2.222,0.898-2.837s1.514-0.923,2.744-0.923c0.807,0,1.602,0.133,2.383,0.4l-0.605,1.738
	c-0.566-0.182-1.107-0.273-1.621-0.273c-0.521,0-0.9,0.161-1.138,0.483s-0.356,0.806-0.356,1.45v0.703H1226.943z M1234.482,317.805
	c-0.254,0.111-0.581,0.203-0.981,0.278s-0.815,0.112-1.245,0.112c-2.174,0-3.262-1.146-3.262-3.438v-5.82h-1.475v-1.016l1.582-0.84
	l0.781-2.285h1.416v2.402h3.076v1.738h-3.076v5.781c0,0.553,0.139,0.962,0.415,1.226s0.64,0.396,1.089,0.396
	c0.561,0,1.119-0.088,1.68-0.264V317.805z"/>
<g>
	<path fill="#1B2026" d="M1404.262,310.703c-0.646,0-1.144,0.262-1.492,0.785c-0.35,0.523-0.523,1.27-0.523,2.238
		c0,0.959,0.169,1.689,0.508,2.191c0.338,0.503,0.846,0.754,1.523,0.754c0.755,0,1.305-0.212,1.648-0.637
		c0.344-0.424,0.521-1.113,0.531-2.066v-0.258c0-1.088-0.178-1.861-0.531-2.32C1405.571,310.933,1405.017,310.703,1404.262,310.703z
		"/>
	<path fill="#1B2026" d="M1425,280h-60c-5.523,0-10,4.477-10,10v60c0,5.523,4.477,10,10,10h60c5.523,0,10-4.477,10-10v-60
		C1435,284.477,1430.523,280,1425,280z M1388.441,308.156h-4.594v3.109h4.305v1.563h-4.305v3.586h4.594V318h-6.461v-11.422h6.461
		V308.156z M1398.316,318h-1.844v-5.313c0-0.666-0.135-1.164-0.402-1.492c-0.269-0.328-0.694-0.492-1.277-0.492
		c-0.776,0-1.344,0.229-1.703,0.688c-0.359,0.459-0.539,1.227-0.539,2.305V318h-1.836v-8.641h1.438l0.258,1.133h0.094
		c0.26-0.411,0.63-0.729,1.109-0.953c0.479-0.224,1.01-0.336,1.594-0.336c2.072,0,3.109,1.055,3.109,3.164V318z M1408.215,318
		h-1.438l-0.32-1.133h-0.086c-0.589,0.859-1.451,1.289-2.586,1.289c-1.078,0-1.92-0.391-2.523-1.172
		c-0.604-0.781-0.906-1.877-0.906-3.289c0-1.416,0.306-2.52,0.918-3.309c0.611-0.789,1.459-1.184,2.543-1.184
		c1.135,0,2,0.42,2.594,1.258h0.094c-0.089-0.619-0.133-1.109-0.133-1.469v-3.148h1.844V318z"/>
</g>
<g>
	<path fill="#1B2026" d="M1384.266,229.344c0,0.396,0.178,0.7,0.535,0.914c0.356,0.213,0.857,0.32,1.504,0.32
		c1,0,1.744-0.144,2.234-0.43c0.489-0.287,0.734-0.667,0.734-1.141c0-0.375-0.135-0.642-0.402-0.801
		c-0.269-0.159-0.768-0.238-1.496-0.238h-1.391c-0.526,0-0.944,0.124-1.254,0.371
		C1384.42,228.587,1384.266,228.922,1384.266,229.344z"/>
	<path fill="#1B2026" d="M1377.273,218.141h-1.297v4.016h0.992c0.958,0,1.661-0.167,2.109-0.5c0.447-0.333,0.672-0.854,0.672-1.563
		c0-0.656-0.201-1.146-0.602-1.469C1378.747,218.302,1378.122,218.141,1377.273,218.141z"/>
	<path fill="#1B2026" d="M1386.672,220.383c-0.531,0-0.934,0.151-1.207,0.453c-0.273,0.302-0.41,0.742-0.41,1.32
		c0,0.542,0.139,0.958,0.418,1.25c0.278,0.292,0.678,0.438,1.199,0.438c1.063,0,1.594-0.567,1.594-1.703
		c0-0.563-0.132-0.996-0.395-1.301C1387.607,220.535,1387.208,220.383,1386.672,220.383z"/>
	<path fill="#1B2026" d="M1425,190h-60c-5.523,0-10,4.477-10,10v60c0,5.523,4.477,10,10,10h60c5.523,0,10-4.477,10-10v-60
		C1435,194.477,1430.523,190,1425,190z M1380.5,222.773c-0.781,0.636-1.894,0.953-3.336,0.953h-1.188V228h-1.867v-11.422h3.289
		c1.427,0,2.496,0.292,3.207,0.875c0.711,0.583,1.066,1.443,1.066,2.578C1381.672,221.224,1381.281,222.138,1380.5,222.773z
		 M1391.055,220.367l-1.477,0.273c0.135,0.183,0.247,0.406,0.336,0.672c0.088,0.266,0.133,0.547,0.133,0.844
		c0,0.891-0.308,1.591-0.922,2.102c-0.615,0.511-1.461,0.766-2.539,0.766c-0.276,0-0.526-0.021-0.75-0.063
		c-0.396,0.245-0.594,0.531-0.594,0.859c0,0.198,0.092,0.347,0.277,0.445c0.185,0.099,0.524,0.148,1.02,0.148h1.508
		c0.953,0,1.677,0.203,2.172,0.609c0.494,0.406,0.742,0.992,0.742,1.758c0,0.979-0.404,1.734-1.211,2.266
		c-0.808,0.531-1.975,0.797-3.5,0.797c-1.178,0-2.076-0.209-2.695-0.625c-0.62-0.417-0.93-1.011-0.93-1.781
		c0-0.531,0.168-0.978,0.504-1.34s0.806-0.613,1.41-0.754c-0.245-0.104-0.447-0.272-0.605-0.504
		c-0.159-0.231-0.238-0.475-0.238-0.73c0-0.323,0.091-0.596,0.273-0.82c0.182-0.224,0.453-0.445,0.813-0.664
		c-0.448-0.192-0.812-0.506-1.09-0.941c-0.279-0.435-0.418-0.944-0.418-1.527c0-0.938,0.295-1.664,0.887-2.18
		c0.591-0.516,1.434-0.773,2.527-0.773c0.244,0,0.501,0.017,0.77,0.051c0.268,0.034,0.47,0.069,0.605,0.105h2.992V220.367z
		 M1404.727,226.504c-1.047,0.998-2.555,1.496-4.523,1.496h-3.195v-11.422h3.531c1.817,0,3.231,0.49,4.242,1.469
		c1.01,0.979,1.516,2.357,1.516,4.133C1406.297,224.065,1405.773,225.507,1404.727,226.504z M1416.156,228h-1.844v-5.313
		c0-0.667-0.135-1.164-0.402-1.492c-0.269-0.328-0.694-0.492-1.277-0.492c-0.776,0-1.344,0.229-1.703,0.688
		c-0.359,0.458-0.539,1.227-0.539,2.305V228h-1.836v-8.641h1.438l0.258,1.133h0.094c0.26-0.411,0.63-0.729,1.109-0.953
		c0.479-0.224,1.01-0.336,1.594-0.336c2.072,0,3.109,1.055,3.109,3.164V228z"/>
	<path fill="#1B2026" d="M1400.492,218.141h-1.617v8.289h1.328c2.75,0,4.125-1.396,4.125-4.188
		C1404.328,219.508,1403.049,218.141,1400.492,218.141z"/>
</g>
<g>
	<path fill="#1B2026" d="M1384.293,139.344c0,0.396,0.178,0.7,0.535,0.914c0.356,0.213,0.857,0.32,1.504,0.32
		c1,0,1.744-0.144,2.234-0.43c0.489-0.287,0.734-0.667,0.734-1.141c0-0.375-0.135-0.642-0.402-0.801
		c-0.269-0.159-0.768-0.238-1.496-0.238h-1.391c-0.526,0-0.944,0.124-1.254,0.371
		C1384.447,138.587,1384.293,138.922,1384.293,139.344z"/>
	<path fill="#1B2026" d="M1386.699,130.383c-0.531,0-0.934,0.151-1.207,0.453c-0.273,0.302-0.41,0.742-0.41,1.32
		c0,0.542,0.139,0.958,0.418,1.25c0.278,0.292,0.678,0.438,1.199,0.438c1.063,0,1.594-0.567,1.594-1.703
		c0-0.563-0.132-0.996-0.395-1.301C1387.635,130.535,1387.235,130.383,1386.699,130.383z"/>
	<path fill="#1B2026" d="M1377.301,128.141h-1.297v4.016h0.992c0.958,0,1.661-0.167,2.109-0.5c0.447-0.333,0.672-0.854,0.672-1.563
		c0-0.656-0.201-1.146-0.602-1.469C1378.774,128.302,1378.149,128.141,1377.301,128.141z"/>
	<path fill="#1B2026" d="M1412.652,130.703c-0.729,0-1.262,0.214-1.598,0.641c-0.336,0.427-0.504,1.109-0.504,2.047v0.273
		c0,1.052,0.166,1.814,0.5,2.285c0.333,0.472,0.877,0.707,1.633,0.707c0.635,0,1.125-0.26,1.469-0.781
		c0.344-0.521,0.516-1.263,0.516-2.227c0-0.969-0.171-1.702-0.512-2.199C1413.814,130.952,1413.313,130.703,1412.652,130.703z"/>
	<path fill="#1B2026" d="M1425,100h-60c-5.523,0-10,4.477-10,10v60c0,5.523,4.477,10,10,10h60c5.523,0,10-4.477,10-10v-60
		C1435,104.477,1430.523,100,1425,100z M1380.527,132.773c-0.781,0.636-1.894,0.953-3.336,0.953h-1.188V138h-1.867v-11.422h3.289
		c1.427,0,2.496,0.292,3.207,0.875c0.711,0.583,1.066,1.443,1.066,2.578C1381.699,131.224,1381.309,132.138,1380.527,132.773z
		 M1391.082,130.367l-1.477,0.273c0.135,0.183,0.247,0.406,0.336,0.672c0.088,0.266,0.133,0.547,0.133,0.844
		c0,0.891-0.308,1.591-0.922,2.102c-0.615,0.511-1.461,0.766-2.539,0.766c-0.276,0-0.526-0.021-0.75-0.063
		c-0.396,0.245-0.594,0.531-0.594,0.859c0,0.198,0.092,0.347,0.277,0.445c0.185,0.099,0.524,0.148,1.02,0.148h1.508
		c0.953,0,1.677,0.203,2.172,0.609c0.494,0.406,0.742,0.992,0.742,1.758c0,0.979-0.404,1.734-1.211,2.266
		c-0.808,0.531-1.975,0.797-3.5,0.797c-1.178,0-2.076-0.208-2.695-0.625c-0.62-0.417-0.93-1.011-0.93-1.781
		c0-0.531,0.168-0.978,0.504-1.34s0.806-0.613,1.41-0.754c-0.245-0.104-0.447-0.272-0.605-0.504
		c-0.159-0.231-0.238-0.475-0.238-0.73c0-0.323,0.091-0.596,0.273-0.82c0.182-0.224,0.453-0.445,0.813-0.664
		c-0.448-0.192-0.812-0.506-1.09-0.941c-0.279-0.435-0.418-0.944-0.418-1.527c0-0.938,0.295-1.664,0.887-2.18
		c0.591-0.516,1.434-0.773,2.527-0.773c0.244,0,0.501,0.017,0.77,0.051c0.268,0.034,0.47,0.069,0.605,0.105h2.992V130.367z
		 M1405.988,133.969c0,0.844-0.182,1.582-0.543,2.215c-0.362,0.633-0.886,1.12-1.57,1.461c-0.686,0.341-1.504,0.512-2.457,0.512
		c-1.417,0-2.519-0.375-3.305-1.125c-0.787-0.75-1.18-1.781-1.18-3.094v-7.359h1.875v7.227c0,0.943,0.219,1.638,0.656,2.086
		c0.438,0.448,1.109,0.672,2.016,0.672c1.76,0,2.641-0.924,2.641-2.773v-7.211h1.867V133.969z M1415.633,136.969
		c-0.612,0.792-1.457,1.188-2.535,1.188c-1.094,0-1.943-0.393-2.547-1.18h-0.109c0.072,0.729,0.109,1.172,0.109,1.328v3.539h-1.836
		v-12.484h1.484c0.041,0.162,0.127,0.547,0.258,1.156h0.094c0.572-0.875,1.432-1.313,2.578-1.313c1.078,0,1.918,0.391,2.52,1.172
		s0.902,1.878,0.902,3.289C1416.551,135.076,1416.244,136.177,1415.633,136.969z"/>
</g>
<g>
	<path fill="#1B2026" d="M1413.684,40.594c-0.584,0-1.051,0.185-1.402,0.555c-0.352,0.37-0.562,0.909-0.629,1.617h3.922
		c-0.011-0.713-0.183-1.254-0.516-1.621C1414.725,40.777,1414.267,40.594,1413.684,40.594z"/>
	<path fill="#1B2026" d="M1425,10h-60c-5.523,0-10,4.477-10,10v60c0,5.523,4.477,10,10,10h60c5.523,0,10-4.477,10-10V20
		C1435,14.477,1430.523,10,1425,10z M1382.363,48h-1.875v-5.148h-5.266V48h-1.867V36.578h1.867v4.672h5.266v-4.672h1.875V48z
		 M1391.754,46.969c-0.725,0.792-1.732,1.188-3.023,1.188c-0.808,0-1.521-0.182-2.141-0.547c-0.62-0.364-1.097-0.888-1.43-1.57
		c-0.334-0.682-0.5-1.474-0.5-2.375c0-1.401,0.359-2.495,1.078-3.281c0.719-0.786,1.731-1.18,3.039-1.18
		c1.25,0,2.239,0.402,2.969,1.207c0.729,0.805,1.094,1.89,1.094,3.254C1392.84,45.076,1392.478,46.177,1391.754,46.969z
		 M1407.684,48h-1.836v-5.328c0-0.661-0.127-1.155-0.379-1.48c-0.253-0.325-0.645-0.488-1.176-0.488
		c-0.714,0-1.236,0.223-1.566,0.668c-0.331,0.445-0.496,1.129-0.496,2.051V48h-1.844v-5.328c0-0.661-0.125-1.155-0.375-1.48
		c-0.25-0.325-0.641-0.488-1.172-0.488c-0.709,0-1.229,0.23-1.559,0.691c-0.331,0.461-0.496,1.228-0.496,2.301V48h-1.836v-8.641
		h1.438l0.258,1.133h0.094c0.239-0.411,0.587-0.729,1.043-0.953c0.455-0.224,0.957-0.336,1.504-0.336
		c1.328,0,2.208,0.453,2.641,1.359h0.125c0.255-0.427,0.614-0.76,1.078-1c0.463-0.239,0.994-0.359,1.594-0.359
		c1.031,0,1.782,0.261,2.254,0.781c0.471,0.521,0.707,1.315,0.707,2.383V48z M1417.379,44.094h-5.758
		c0.025,0.839,0.252,1.483,0.68,1.934c0.427,0.451,1.028,0.676,1.805,0.676c0.51,0,0.985-0.048,1.426-0.145
		c0.439-0.096,0.912-0.256,1.418-0.48v1.492c-0.448,0.214-0.901,0.365-1.359,0.453c-0.459,0.088-0.982,0.133-1.57,0.133
		c-1.344,0-2.395-0.392-3.152-1.176c-0.758-0.784-1.137-1.863-1.137-3.238c0-1.411,0.352-2.521,1.055-3.328
		c0.703-0.807,1.669-1.211,2.898-1.211c1.141,0,2.041,0.347,2.703,1.039c0.661,0.693,0.992,1.646,0.992,2.859V44.094z"/>
	<path fill="#1B2026" d="M1388.746,40.703c-0.771,0-1.33,0.255-1.676,0.766c-0.347,0.511-0.52,1.242-0.52,2.195
		c0,1.995,0.736,2.992,2.211,2.992c1.458,0,2.188-0.997,2.188-2.992C1390.949,41.69,1390.215,40.703,1388.746,40.703z"/>
</g>
<g>
	<path fill="#1B2026" d="M60.84,218.879c-0.912,0-1.577,0.267-1.997,0.801s-0.63,1.387-0.63,2.559v0.342
		c0,1.315,0.208,2.267,0.625,2.856s1.097,0.884,2.041,0.884c0.794,0,1.406-0.326,1.836-0.977s0.645-1.579,0.645-2.783
		c0-1.211-0.213-2.127-0.64-2.749S61.667,218.879,60.84,218.879z"/>
	<path fill="#1B2026" d="M98.613,218.879c-0.963,0-1.662,0.319-2.095,0.957s-0.649,1.553-0.649,2.744c0,2.494,0.921,3.74,2.764,3.74
		c1.823,0,2.734-1.247,2.734-3.74C101.367,220.113,100.449,218.879,98.613,218.879z"/>
	<path fill="#1B2026" d="M165,190H20c-5.523,0-10,4.477-10,10v60c0,5.523,4.477,10,10,10h145c5.523,0,10-4.477,10-10v-60
		C175,194.477,170.523,190,165,190z M34.751,224.855c0.739,0.898,1.808,1.348,3.208,1.348c0.605,0,1.191-0.06,1.758-0.181
		s1.156-0.275,1.768-0.464v2.002c-1.12,0.423-2.389,0.635-3.809,0.635c-2.09,0-3.695-0.633-4.814-1.899s-1.68-3.078-1.68-5.435
		c0-1.484,0.272-2.783,0.815-3.896s1.33-1.966,2.358-2.559s2.236-0.889,3.623-0.889c1.458,0,2.806,0.306,4.043,0.918l-0.84,1.943
		c-0.482-0.228-0.991-0.428-1.528-0.601s-1.102-0.259-1.694-0.259c-1.341,0-2.396,0.475-3.164,1.426s-1.152,2.262-1.152,3.936
		C33.643,222.632,34.012,223.957,34.751,224.855z M52.715,228h-1.641l-0.459-1.504h-0.078c-0.521,0.658-1.045,1.105-1.572,1.343
		s-1.205,0.356-2.031,0.356c-1.061,0-1.89-0.287-2.485-0.859s-0.894-1.383-0.894-2.432c0-1.113,0.414-1.953,1.24-2.52
		s2.086-0.875,3.779-0.928l1.865-0.059v-0.576c0-0.69-0.161-1.206-0.483-1.548s-0.822-0.513-1.499-0.513
		c-0.553,0-1.084,0.082-1.592,0.244s-0.996,0.355-1.465,0.576l-0.742-1.641c0.586-0.306,1.227-0.539,1.924-0.698
		s1.354-0.239,1.973-0.239c1.374,0,2.411,0.299,3.11,0.898s1.05,1.54,1.05,2.822V228z M64.565,226.711
		c-0.765,0.99-1.821,1.484-3.169,1.484c-1.367,0-2.428-0.492-3.184-1.475h-0.137c0.091,0.912,0.137,1.465,0.137,1.66v4.424h-2.295
		v-15.605h1.855c0.052,0.202,0.16,0.684,0.322,1.445h0.117c0.716-1.094,1.791-1.641,3.223-1.641c1.348,0,2.397,0.488,3.149,1.465
		s1.128,2.347,1.128,4.111S65.331,225.721,64.565,226.711z M74.482,227.351c-0.768,0.563-1.869,0.845-3.301,0.845
		c-1.439,0-2.594-0.218-3.467-0.654v-1.982c1.27,0.586,2.451,0.879,3.545,0.879c1.413,0,2.119-0.426,2.119-1.279
		c0-0.273-0.078-0.501-0.234-0.684s-0.414-0.371-0.771-0.566s-0.856-0.417-1.494-0.664c-1.244-0.482-2.085-0.963-2.524-1.445
		s-0.659-1.107-0.659-1.875c0-0.924,0.373-1.642,1.118-2.153s1.759-0.767,3.042-0.767c1.27,0,2.471,0.257,3.604,0.771l-0.742,1.729
		c-1.166-0.482-2.145-0.723-2.939-0.723c-1.211,0-1.816,0.345-1.816,1.035c0,0.338,0.158,0.625,0.474,0.859s1.004,0.557,2.065,0.967
		c0.892,0.345,1.54,0.661,1.943,0.947s0.703,0.617,0.898,0.991s0.293,0.822,0.293,1.343
		C75.635,225.979,75.25,226.788,74.482,227.351z M91.934,228h-8.379v-14.277h2.334v12.275h6.045V228z M102.373,226.711
		c-0.905,0.99-2.165,1.484-3.779,1.484c-1.009,0-1.901-0.228-2.676-0.684s-1.371-1.11-1.787-1.963s-0.625-1.842-0.625-2.969
		c0-1.751,0.449-3.119,1.348-4.102s2.165-1.475,3.799-1.475c1.563,0,2.799,0.503,3.711,1.509s1.367,2.362,1.367,4.067
		C103.73,224.344,103.278,225.721,102.373,226.711z M108.784,225.368c0.465,0.609,1.147,0.913,2.046,0.913
		c1.022,0,1.989-0.254,2.9-0.762v2.002c-0.41,0.241-0.848,0.414-1.313,0.518s-1.03,0.156-1.694,0.156
		c-1.634,0-2.876-0.477-3.726-1.431s-1.274-2.323-1.274-4.106c0-1.816,0.444-3.213,1.333-4.189s2.173-1.465,3.853-1.465
		c1.139,0,2.165,0.211,3.076,0.635l-0.693,1.846c-0.97-0.377-1.771-0.566-2.402-0.566c-1.869,0-2.803,1.24-2.803,3.721
		C108.086,223.85,108.319,224.759,108.784,225.368z M123.271,228l-3.467-4.736l-1.26,1.035V228h-2.275v-15.195h2.275v7.412
		l-0.117,2.08h0.059l1.299-1.621l3.262-3.477h2.646l-4.346,4.639l4.619,6.162H123.271z"/>
	<path fill="#1B2026" d="M46.675,223.444c-0.492,0.322-0.737,0.815-0.737,1.479c0,0.482,0.143,0.854,0.43,1.118
		s0.716,0.396,1.289,0.396c0.833,0,1.502-0.233,2.007-0.698s0.757-1.118,0.757-1.958v-0.938l-1.387,0.059
		C47.953,222.941,47.167,223.122,46.675,223.444z"/>
</g>
<g>
	<path fill="#1B2026" d="M212.654,215.797c-0.19-0.616-0.321-1.067-0.392-1.354c-0.193,0.881-0.477,1.844-0.849,2.89l-1.418,4.093
		h4.576l-1.472-4.275C212.992,216.864,212.843,216.413,212.654,215.797z"/>
	<path fill="#1B2026" d="M255,190h-60c-5.523,0-10,4.477-10,10v60c0,5.523,4.477,10,10,10h60c5.523,0,10-4.477,10-10v-60
		C265,194.477,260.523,190,255,190z M216.816,228l-1.568-4.361h-6.005L207.707,228H205l5.876-15.77h2.793l5.876,15.77H216.816z"/>
</g>
<path fill="#1B2026" d="M345,190h-60c-5.523,0-10,4.477-10,10v60c0,5.523,4.477,10,10,10h60c5.523,0,10-4.477,10-10v-60
	C355,194.477,350.523,190,345,190z M304.614,227.022c-1.01,0.795-2.403,1.192-4.179,1.192c-1.776,0-3.23-0.275-4.361-0.827v-2.428
	c0.716,0.337,1.477,0.602,2.283,0.795s1.556,0.29,2.25,0.29c1.017,0,1.767-0.193,2.25-0.58s0.725-0.906,0.725-1.558
	c0-0.587-0.222-1.085-0.666-1.493c-0.444-0.408-1.361-0.892-2.75-1.45c-1.433-0.58-2.442-1.242-3.029-1.987
	c-0.587-0.745-0.881-1.64-0.881-2.686c0-1.311,0.465-2.342,1.396-3.094c0.931-0.752,2.181-1.128,3.749-1.128
	c1.504,0,3,0.33,4.49,0.988l-0.816,2.095c-1.396-0.587-2.643-0.881-3.738-0.881c-0.831,0-1.461,0.181-1.891,0.542
	c-0.43,0.362-0.645,0.84-0.645,1.434c0,0.408,0.086,0.757,0.258,1.047s0.455,0.564,0.849,0.822c0.394,0.258,1.103,0.598,2.127,1.021
	c1.153,0.48,1.998,0.928,2.535,1.343c0.537,0.416,0.931,0.885,1.182,1.407c0.25,0.523,0.376,1.139,0.376,1.848
	C306.129,225.132,305.624,226.228,304.614,227.022z"/>
<g>
	<path fill="#1B2026" d="M435,190h-60c-5.523,0-10,4.477-10,10v60c0,5.523,4.477,10,10,10h60c5.523,0,10-4.477,10-10v-60
		C445,194.477,440.523,190,435,190z M397.687,225.943c-1.439,1.372-3.513,2.057-6.22,2.057h-4.394v-15.705h4.855
		c2.499,0,4.443,0.673,5.833,2.02c1.389,1.347,2.084,3.241,2.084,5.683C399.846,222.59,399.126,224.572,397.687,225.943z"/>
	<path fill="#1B2026" d="M391.864,214.443h-2.224v11.397h1.826c3.781,0,5.672-1.919,5.672-5.758
		C397.139,216.323,395.38,214.443,391.864,214.443z"/>
</g>
<path fill="#1B2026" d="M525,190h-60c-5.523,0-10,4.477-10,10v60c0,5.523,4.477,10,10,10h60c5.523,0,10-4.477,10-10v-60
	C535,194.477,530.523,190,525,190z M485.936,214.465h-6.316v4.909h5.919v2.181h-5.919V228h-2.546v-15.705h8.862V214.465z"/>
<path fill="#1B2026" d="M615,190h-60c-5.523,0-10,4.477-10,10v60c0,5.523,4.477,10,10,10h60c5.523,0,10-4.477,10-10v-60
	C625,194.477,620.523,190,615,190z M579.276,227.366c-0.945,0.308-1.853,0.526-2.723,0.655s-1.81,0.193-2.82,0.193
	c-2.378,0-4.211-0.704-5.5-2.111s-1.934-3.393-1.934-5.957c0-2.528,0.727-4.506,2.181-5.935c1.454-1.429,3.455-2.143,6.005-2.143
	c1.64,0,3.194,0.315,4.662,0.945l-0.902,2.138c-1.275-0.587-2.55-0.881-3.824-0.881c-1.676,0-3.001,0.526-3.975,1.579
	c-0.974,1.053-1.461,2.492-1.461,4.318c0,1.919,0.438,3.378,1.316,4.377c0.877,0.999,2.139,1.499,3.787,1.499
	c0.831,0,1.719-0.104,2.664-0.312v-4.05h-3.255v-2.202h5.779V227.366z"/>
<path fill="#1B2026" d="M705,190h-60c-5.523,0-10,4.477-10,10v60c0,5.523,4.477,10,10,10h60c5.523,0,10-4.477,10-10v-60
	C715,194.477,710.523,190,705,190z M669.459,228h-2.578v-7.079h-7.24V228h-2.567v-15.705h2.567v6.424h7.24v-6.424h2.578V228z"/>
<path fill="#1B2026" d="M795,190h-60c-5.523,0-10,4.477-10,10v60c0,5.523,4.477,10,10,10h60c5.523,0,10-4.477,10-10v-60
	C805,194.477,800.523,190,795,190z M749.576,227.431c0,1.604-0.381,2.831-1.145,3.679c-0.762,0.85-1.878,1.273-3.346,1.273
	c-0.701,0-1.289-0.09-1.762-0.269v-2.159c0.602,0.15,1.125,0.226,1.568,0.226c1.403,0,2.105-0.888,2.105-2.664v-15.222h2.578
	V227.431z"/>
<path fill="#1B2026" d="M885,190h-60c-5.523,0-10,4.477-10,10v60c0,5.523,4.477,10,10,10h60c5.523,0,10-4.477,10-10v-60
	C895,194.477,890.523,190,885,190z M846.086,228l-4.931-7.111l-1.515,1.235V228h-2.567v-15.705h2.567v7.498
	c0.701-0.859,1.4-1.687,2.095-2.481l4.243-5.017h2.922c-2.743,3.223-4.709,5.518-5.897,6.886l6.059,8.819H846.086z"/>
<path fill="#1B2026" d="M975,190h-60c-5.523,0-10,4.477-10,10v60c0,5.523,4.477,10,10,10h60c5.523,0,10-4.477,10-10v-60
	C985,194.477,980.523,190,975,190z M936.29,228h-9.217v-15.705h2.567v13.503h6.649V228z"/>
<path fill="#1B2026" d="M205,280H20c-5.523,0-10,4.477-10,10v60c0,5.523,4.477,10,10,10h185c5.523,0,10-4.477,10-10v-60
	C215,284.477,210.523,280,205,280z M38.74,317.111c-0.918,0.723-2.184,1.084-3.799,1.084s-2.936-0.25-3.965-0.752v-2.207
	c0.651,0.307,1.343,0.547,2.075,0.723s1.415,0.264,2.046,0.264c0.924,0,1.606-0.176,2.046-0.527s0.659-0.824,0.659-1.416
	c0-0.533-0.202-0.986-0.605-1.357s-1.237-0.811-2.5-1.318c-1.302-0.527-2.22-1.129-2.754-1.807s-0.801-1.49-0.801-2.441
	c0-1.191,0.423-2.129,1.27-2.813s1.982-1.025,3.408-1.025c1.367,0,2.728,0.299,4.082,0.898l-0.742,1.904
	c-1.27-0.533-2.402-0.801-3.398-0.801c-0.755,0-1.328,0.164-1.719,0.493s-0.586,0.763-0.586,1.304c0,0.371,0.078,0.688,0.234,0.952
	s0.414,0.513,0.771,0.747s1.002,0.543,1.934,0.928c1.048,0.436,1.816,0.844,2.305,1.221s0.846,0.805,1.074,1.279
	s0.342,1.035,0.342,1.68C40.117,315.393,39.658,316.389,38.74,317.111z M52.139,318h-2.305v-6.641c0-0.834-0.167-1.455-0.503-1.865
	s-0.868-0.615-1.597-0.615c-0.963,0-1.671,0.288-2.124,0.864s-0.679,1.542-0.679,2.896V318h-2.295v-15.195h2.295v3.857
	c0,0.619-0.039,1.279-0.117,1.982h0.146c0.313-0.521,0.747-0.924,1.304-1.211s1.206-0.43,1.948-0.43
	c2.617,0,3.926,1.318,3.926,3.955V318z M57.627,318h-2.295v-10.801h2.295V318z M57.437,305.261
	c-0.225,0.225-0.539,0.337-0.942,0.337c-0.417,0-0.737-0.112-0.962-0.337s-0.337-0.532-0.337-0.923c0-0.41,0.112-0.727,0.337-0.947
	s0.545-0.332,0.962-0.332c0.404,0,0.718,0.111,0.942,0.332s0.337,0.537,0.337,0.947C57.773,304.729,57.661,305.036,57.437,305.261z
	 M66.328,307.199v1.738h-2.637V318h-2.305v-9.063h-1.777v-1.074l1.777-0.703v-0.703c0-1.275,0.299-2.222,0.898-2.837
	s1.514-0.923,2.744-0.923c0.807,0,1.602,0.133,2.383,0.4l-0.605,1.738c-0.566-0.182-1.107-0.273-1.621-0.273
	c-0.521,0-0.9,0.161-1.138,0.483s-0.356,0.806-0.356,1.45v0.703H66.328z M73.867,317.805c-0.254,0.111-0.581,0.203-0.981,0.278
	s-0.815,0.112-1.245,0.112c-2.174,0-3.262-1.146-3.262-3.438v-5.82h-1.475v-1.016l1.582-0.84l0.781-2.285h1.416v2.402h3.076v1.738
	h-3.076v5.781c0,0.553,0.138,0.962,0.415,1.226s0.64,0.396,1.089,0.396c0.56,0,1.12-0.088,1.68-0.264V317.805z"/>
<path fill="#1B2026" d="M295,280h-60c-5.523,0-10,4.477-10,10v60c0,5.523,4.477,10,10,10h60c5.523,0,10-4.477,10-10v-60
	C305,284.477,300.523,280,295,280z M256.945,318h-11.236v-1.783l7.917-11.72h-7.702v-2.202h10.807v1.805l-7.949,11.698h8.164V318z"
	/>
<path fill="#1B2026" d="M215,370h-60c-5.523,0-10,4.477-10,10v60c0,5.523,4.477,10,10,10h60c5.523,0,10-4.477,10-10v-60
	C225,374.477,220.523,370,215,370z M169.206,407.865c-0.276,0.297-0.671,0.446-1.187,0.446s-0.91-0.147-1.182-0.44
	c-0.272-0.293-0.408-0.698-0.408-1.214c0-0.522,0.136-0.924,0.408-1.203c0.272-0.279,0.666-0.419,1.182-0.419
	c0.522,0,0.92,0.145,1.192,0.436c0.272,0.289,0.408,0.686,0.408,1.187C169.619,407.166,169.481,407.568,169.206,407.865z
	 M169.206,398.691c-0.276,0.298-0.671,0.446-1.187,0.446s-0.91-0.146-1.182-0.44c-0.272-0.293-0.408-0.698-0.408-1.214
	c0-1.081,0.53-1.622,1.59-1.622c0.537,0,0.938,0.144,1.203,0.43c0.265,0.287,0.397,0.684,0.397,1.192
	S169.481,398.395,169.206,398.691z M180.533,411.427h-9.528v-1.45h9.528V411.427z"/>
<path fill="#1B2026" d="M385,280h-60c-5.523,0-10,4.477-10,10v60c0,5.523,4.477,10,10,10h60c5.523,0,10-4.477,10-10v-60
	C395,284.477,390.523,280,385,280z M345.688,318l-3.932-6.424L337.793,318h-2.75l5.21-8.143l-4.877-7.563h2.857l3.631,5.94
	l3.631-5.94h2.771l-4.909,7.605l5.285,8.1H345.688z"/>
<path fill="#1B2026" d="M475,280h-60c-5.523,0-10,4.477-10,10v60c0,5.523,4.477,10,10,10h60c5.523,0,10-4.477,10-10v-60
	C485,284.477,480.523,280,475,280z M430.226,314.541c0.813,0.988,1.989,1.482,3.529,1.482c0.666,0,1.311-0.066,1.934-0.199
	c0.623-0.132,1.271-0.302,1.944-0.51v2.202c-1.232,0.466-2.628,0.698-4.189,0.698c-2.299,0-4.064-0.696-5.296-2.09
	c-1.232-1.393-1.848-3.385-1.848-5.978c0-1.633,0.299-3.062,0.897-4.286c0.598-1.225,1.462-2.162,2.594-2.814
	c1.131-0.651,2.46-0.978,3.985-0.978c1.604,0,3.086,0.337,4.447,1.01l-0.924,2.138c-0.53-0.25-1.09-0.471-1.681-0.66
	s-1.212-0.285-1.864-0.285c-1.476,0-2.636,0.523-3.48,1.568c-0.845,1.046-1.268,2.488-1.268,4.329
	C429.007,312.096,429.413,313.553,430.226,314.541z"/>
<path fill="#1B2026" d="M890,440c0,5.523-4.477,10-10,10H370c-5.523,0-10-4.477-10-10v-60c0-5.523,4.477-10,10-10h510
	c5.523,0,10,4.477,10,10V440z"/>
<path fill="#1B2026" d="M565,280h-60c-5.523,0-10,4.477-10,10v60c0,5.523,4.477,10,10,10h60c5.523,0,10-4.477,10-10v-60
	C575,284.477,570.523,280,565,280z M523.186,318h-2.707L515,302.295h2.643l3.276,9.765c0.172,0.466,0.354,1.065,0.548,1.8
	s0.318,1.279,0.376,1.638c0.093-0.544,0.236-1.175,0.43-1.891s0.351-1.246,0.473-1.59l3.276-9.722h2.664L523.186,318z"/>
<g>
	<path fill="#1B2026" d="M614.786,311.458c-0.559-0.394-1.407-0.591-2.546-0.591h-2.6v4.974h2.729c1.074,0,1.885-0.206,2.433-0.618
		c0.548-0.411,0.822-1.061,0.822-1.949C615.624,312.457,615.345,311.852,614.786,311.458z"/>
	<path fill="#1B2026" d="M655,280h-60c-5.523,0-10,4.477-10,10v60c0,5.523,4.477,10,10,10h60c5.523,0,10-4.477,10-10v-60
		C665,284.477,660.523,280,655,280z M616.854,316.803c-0.985,0.799-2.354,1.197-4.109,1.197h-5.672v-15.705h4.662
		c2.163,0,3.726,0.315,4.689,0.945c0.963,0.631,1.445,1.626,1.445,2.986c0,0.917-0.236,1.68-0.709,2.288s-1.153,0.992-2.041,1.149
		v0.107c1.103,0.208,1.914,0.617,2.433,1.23c0.519,0.611,0.779,1.441,0.779,2.486C618.331,314.899,617.838,316.004,616.854,316.803z
		"/>
	<path fill="#1B2026" d="M614.464,308.273c0.494-0.34,0.741-0.919,0.741-1.735c0-0.737-0.267-1.271-0.8-1.601
		c-0.534-0.329-1.38-0.494-2.541-0.494h-2.224v4.34h2.471C613.186,308.783,613.97,308.613,614.464,308.273z"/>
</g>
<path fill="#1B2026" d="M745,280h-60c-5.523,0-10,4.477-10,10v60c0,5.523,4.477,10,10,10h60c5.523,0,10-4.477,10-10v-60
	C755,284.477,750.523,280,745,280z M710.157,318h-3.147l-7.724-12.515H699.2l0.054,0.698c0.1,1.332,0.15,2.55,0.15,3.652V318h-2.331
	v-15.705h3.115l7.702,12.45h0.064c-0.015-0.165-0.043-0.765-0.086-1.8c-0.043-1.034-0.064-1.842-0.064-2.422v-8.229h2.353V318z"/>
<path fill="#1B2026" d="M835,280h-60c-5.523,0-10,4.477-10,10v60c0,5.523,4.477,10,10,10h60c5.523,0,10-4.477,10-10v-60
	C845,284.477,840.523,280,835,280z M803.24,318h-2.471v-7.767c0-0.78,0.02-1.798,0.059-3.051s0.074-2.013,0.103-2.277h-0.086
	L796.129,318h-2.267l-4.555-13.116h-0.086c0.122,1.948,0.183,3.774,0.183,5.479V318h-2.331v-15.705h3.62l4.361,12.493h0.064
	l4.49-12.493h3.631V318z"/>
<g>
	<path fill="#1B2026" d="M926.958,396.906c-0.173-0.561-0.292-0.971-0.356-1.23c-0.176,0.801-0.434,1.676-0.771,2.627l-1.289,3.721
		h4.16l-1.338-3.887C927.266,397.877,927.131,397.467,926.958,396.906z"/>
	<path fill="#1B2026" d="M1015,370H910c-5.523,0-10,4.477-10,10v60c0,5.523,4.477,10,10,10h105c5.523,0,10-4.477,10-10v-60
		C1025,374.477,1020.523,370,1015,370z M930.742,408l-1.426-3.965h-5.459L922.461,408H920l5.342-14.336h2.539L933.223,408H930.742z
		 M937.158,408h-2.295v-15.195h2.295V408z M946.143,407.805c-0.254,0.111-0.581,0.203-0.981,0.278s-0.815,0.112-1.245,0.112
		c-2.174,0-3.262-1.146-3.262-3.438v-5.82h-1.475v-1.016l1.582-0.84l0.781-2.285h1.416v2.402h3.076v1.738h-3.076v5.781
		c0,0.553,0.139,0.962,0.415,1.226s0.64,0.396,1.089,0.396c0.561,0,1.119-0.088,1.68-0.264V407.805z"/>
</g>
<g>
	<path fill="#1B2026" d="M1061.958,396.906c-0.173-0.561-0.292-0.971-0.356-1.23c-0.176,0.801-0.434,1.676-0.771,2.627l-1.289,3.721
		h4.16l-1.338-3.887C1062.266,397.877,1062.131,397.467,1061.958,396.906z"/>
	<path fill="#1B2026" d="M1155,370h-110c-5.523,0-10,4.477-10,10v60c0,5.523,4.477,10,10,10h110c5.523,0,10-4.477,10-10v-60
		C1165,374.477,1160.523,370,1155,370z M1065.742,408l-1.426-3.965h-5.459l-1.396,3.965H1055l5.342-14.336h2.539l5.342,14.336
		H1065.742z M1072.158,408h-2.295v-15.195h2.295V408z M1081.143,407.805c-0.254,0.111-0.581,0.203-0.981,0.278
		s-0.815,0.112-1.245,0.112c-2.174,0-3.262-1.146-3.262-3.438v-5.82h-1.475v-1.016l1.582-0.84l0.781-2.285h1.416v2.402h3.076v1.738
		h-3.076v5.781c0,0.553,0.139,0.962,0.415,1.226s0.64,0.396,1.089,0.396c0.561,0,1.119-0.088,1.68-0.264V407.805z"/>
</g>
<path fill="#1B2026" d="M1335,280h-60c-5.523,0-10,4.477-10,10v60c0,5.523,4.477,10,10,10h60c5.523,0,10-4.477,10-10v-60
	C1345,284.477,1340.523,280,1335,280z M1306.465,322.248v6h-2.951v-6h-5.094l6.58-10.496l6.58,10.496H1306.465z"/>
<path fill="#1B2026" d="M1335,370h-60c-5.523,0-10,4.477-10,10v60c0,5.523,4.477,10,10,10h60c5.523,0,10-4.477,10-10v-60
	C1345,374.477,1340.523,370,1335,370z M1305,418.247l-6.58-10.496h5.115v-6h2.951v6h5.094L1305,418.247z"/>
<path fill="#1B2026" d="M1245,370h-60c-5.523,0-10,4.477-10,10v60c0,5.523,4.477,10,10,10h60c5.523,0,10-4.477,10-10v-60
	C1255,374.477,1250.523,370,1245,370z M1223.248,411.485h-6v5.094l-10.496-6.58l10.496-6.58v5.115h6V411.485z"/>
<path fill="#1B2026" d="M1425,370h-60c-5.523,0-10,4.477-10,10v60c0,5.523,4.477,10,10,10h60c5.523,0,10-4.477,10-10v-60
	C1435,374.477,1430.523,370,1425,370z M1392.752,416.579v-5.115h-6v-2.951h6v-5.094l10.496,6.58L1392.752,416.579z"/>
<g>
</g>
<g>
</g>
<g>
</g>
<g>
</g>
<g>
</g>
<g>
</g>
</svg>
