<svg id="Layer_1" data-name="Layer 1" xmlns="http://www.w3.org/2000/svg" width="100" height="100" viewBox="0 0 100 100"><defs><style>.cls-1{fill:#e6d21e;}</style></defs><title>rating-general</title><circle class="cls-1" cx="50" cy="50" r="50"/><path d="M12,63c0.75,12,15.76,26,36,27,24.5,1.25,36-17.75,37-26C69.75,66.75,30.75,66,12,63Z"/><path d="M18.79,39.89l-3.58-1.79a13.73,13.73,0,0,1,9.18-6.77,15.71,15.71,0,0,1,12.77,2l-2.31,3.26a11.69,11.69,0,0,0-9.48-1.42A9.91,9.91,0,0,0,18.79,39.89Z"/><path d="M76.27,39A10.61,10.61,0,0,0,69,34.4a12,12,0,0,0-9.73,2.17l-2.5-3.12a16,16,0,0,1,13-3,14.42,14.42,0,0,1,10,6.53Z"/></svg>